<?xml version="1.0" encoding="utf-8"?>
<!-- Generator: Adobe Illustrator 28.2.0, SVG Export Plug-In . SVG Version: 6.00 Build 0)  -->
<svg version="1.1" id="Layer_1" xmlns="http://www.w3.org/2000/svg" xmlns:xlink="http://www.w3.org/1999/xlink" x="0px" y="0px"
	 viewBox="0 0 2200 2200" style="enable-background:new 0 0 2200 2200;" xml:space="preserve">
<style type="text/css">
	.st0{fill:none;stroke:#000000;stroke-width:2;stroke-miterlimit:10;}
	.st1{fill:none;stroke:#000000;stroke-width:3;stroke-miterlimit:10;}
	.st2{fill:none;stroke:#000000;stroke-width:18;stroke-miterlimit:10;}
	.st3{fill:none;stroke:#000000;stroke-width:12;stroke-miterlimit:10;}
	.st4{stroke:#000000;stroke-width:12;stroke-miterlimit:10;}
	.st5{fill:none;stroke:#000000;stroke-width:20;}
	.st6{fill:#9F9F9F;stroke:#000000;stroke-width:40;}
</style>
<path class="st0" d="M1077.6,631.5c-27,0-53.9,10.9-74,29.9c-20.4,19.3-31.6,44.5-31.6,70.8c0,8,1,15.9,2.9,23.4l122.3-122.3
	C1090.7,632.1,1084.2,631.5,1077.6,631.5z"/>
<g>
	<path class="st0" d="M1150.9,804c9.5-9,17-19.6,22.3-31.1l-50,50C1133.3,818.1,1142.7,811.8,1150.9,804z"/>
	<g>
		<path class="st0" d="M1140.1,943.3c-11.7-10.8-27.3-17.5-45.6-19.8l-95.6,95.6c1,22.5,5.2,42.3,11.9,60l132.5-132.5
			C1142.3,945.4,1141.2,944.3,1140.1,943.3z"/>
		<path class="st0" d="M894.2,1339.4l-90.3,90.3c1.5,7.1,3.7,14.5,6.4,22.2c3.5,10,8.2,19.8,13.9,29.3l113-113
			C925.1,1354.6,911.9,1344.3,894.2,1339.4z"/>
		<path class="st0" d="M1213.6,1595.1l204.3-204.3c1.2-9.8,1.8-19.9,1.8-30.2c0-14.4-1.1-27.8-3.1-40.4l-286.3,286.3
			C1159.3,1605.3,1187.3,1601.4,1213.6,1595.1z"/>
		<path class="st0" d="M1194.4,1254.8l100.1-100.1c-11.1-7.8-22.7-15.4-34.7-23.2l0,0c-2.8-1.9-5.6-3.7-8.3-5.6l-97.5,97.5
			C1169.4,1234.4,1182.9,1244.6,1194.4,1254.8z"/>
		<path class="st0" d="M1161.3,1000.3V993c0-17.8-6.4-34.2-18-46.5L1010.8,1079c6.5,17.2,15.3,32.4,25.7,46.2L1161.3,1000.3
			C1161.3,1000.4,1161.3,1000.3,1161.3,1000.3z"/>
		<path class="st0" d="M1242.4,1350.6l129-129c-10.6-12.7-22.7-24.6-36-35.8l-107.7,107.7C1237.2,1310,1242.2,1328.3,1242.4,1350.6z
			"/>
		<path class="st0" d="M1227.6,1293.5l107.7-107.7c-12.6-10.7-26.3-21-40.8-31.1l-100.1,100.1
			C1208.5,1267.3,1219.6,1279.8,1227.6,1293.5z"/>
		<path class="st0" d="M1161.3,1000.4l-124.9,124.9c10.3,13.6,22.1,25.8,34.9,37l105.6-105.6
			C1166.7,1039.9,1161.3,1021.7,1161.3,1000.4z"/>
		<path class="st0" d="M1176.9,1056.7l-105.6,105.6c12.8,11.3,26.5,21.6,40.3,31.5l98.9-98.9
			C1196.4,1082.6,1185.1,1070.1,1176.9,1056.7z"/>
		<path class="st0" d="M868.9,1336.2c-16.9,0-33.7,6.3-46.2,17.2c-9.9,8.6-21.7,24.3-21.7,49.6c0,8.6,1,17.5,3,26.7l90.3-90.3
			C886.7,1337.3,878.4,1336.2,868.9,1336.2z"/>
		<path class="st0" d="M1326.9,1544.6c52.5-38.2,83.5-91,91-153.9L1213.6,1595C1256.6,1584.7,1295.3,1567.6,1326.9,1544.6z"/>
		<path class="st0" d="M1097.1,633.4L974.8,755.6c4.4,17.5,13.5,33.2,26.1,45.8l144.8-144.8C1132,645.1,1115.3,636.8,1097.1,633.4z"
			/>
		<path class="st0" d="M1077.6,833c16.1,0,31.6-3.5,45.7-10.1l50-50c5.7-12.6,8.8-26.4,8.8-40.7c0-11.8-2.2-23.1-6.3-33.7
			L1046,828.3C1055.9,831.3,1066.5,833,1077.6,833z"/>
		<path class="st0" d="M1145.7,656.6l-144.8,144.8c12.2,12.3,27.6,21.7,45,26.9l129.8-129.8C1169.5,682.3,1159,667.9,1145.7,656.6z"
			/>
		<path class="st0" d="M1080,922.6c-54,0-81.3,27-81.3,80.1v6.1c0,3.5,0.1,6.9,0.2,10.3l95.6-95.6
			C1089.8,922.9,1085,922.6,1080,922.6z"/>
		<path class="st0" d="M1007.2,1442.1L897,1552.3c4,2.5,8,4.9,12.2,7.3c11.2,6.3,23,12,35.4,17l110.3-110.3
			C1038,1461.2,1022.3,1453.2,1007.2,1442.1z"/>
		<path class="st0" d="M970.2,1407.2L856.4,1521c11.8,11.3,25.4,21.9,40.5,31.3l110.2-110.2C994.5,1432.7,982.2,1421.1,970.2,1407.2
			z"/>
		<path class="st0" d="M1154,1223.4l97.5-97.5c-15.5-10.5-29.2-20.7-41-30.9l-98.9,98.9c1.9,1.4,3.8,2.7,5.8,4.1
			C1130.6,1207,1142.8,1215.4,1154,1223.4z"/>
		<path class="st0" d="M963.8,1399.5l-20.7-24.3c-1.9-2.4-3.9-4.7-5.9-7l-113,113c8.5,14,19.3,27.3,32.2,39.7l113.8-113.8
			C968,1404.7,965.9,1402.2,963.8,1399.5z"/>
		<path class="st0" d="M1104.2,1473.3c-17.6,0-34-2.3-49.4-7l-110.3,110.3c17.1,7,35.3,12.9,54.4,17.5l121.4-121.4
			C1115.1,1473.1,1109.7,1473.3,1104.2,1473.3z"/>
		<path class="st0" d="M1371.4,1221.6l-129,129c0,0.5,0,1,0,1.5c0,35.8-13.2,66.2-38.1,88.1c-21.5,18.8-50.2,29.9-84,32.5L999,1594
			c19.6,4.8,40.2,8.2,61.6,10.3l339.1-339.1C1392.1,1249.4,1382.6,1235,1371.4,1221.6z"/>
		<path class="st0" d="M1060.5,1604.4c16.6,1.6,33.6,2.5,51,2.5c6.3,0,12.6-0.1,18.8-0.4l286.3-286.3c-3.3-20.3-9-38.4-16.9-54.9
			L1060.5,1604.4z"/>
	</g>
</g>
<path class="st1" d="M1431.7,1360.5c0,5.7-0.2,11.4-0.5,17L1868.6,940c-4.3-19.1-9.3-38.1-15-56.9l-426.8,426.8
	C1430.1,1325.9,1431.7,1342.8,1431.7,1360.5z"/>
<path class="st1" d="M1426.9,1309.9l426.8-426.8c-5.5-18-11.6-35.8-18.4-53.5l-426.7,426.7C1417,1273.1,1423.1,1290.9,1426.9,1309.9
	z"/>
<path class="st1" d="M1402.6,1477.9l477.1-477.1c-2.9-20.4-6.6-40.7-11.1-60.8l-437.5,437.5
	C1428.9,1414.3,1419.3,1448,1402.6,1477.9z"/>
<path class="st2" d="M903.7,1329.9l159.1-159.1c-12.6-11.2-24.5-23.4-35-36.9L824.7,1337c13.1-8.2,28.7-12.8,44.2-12.8
	C882.3,1324.2,893.8,1326.3,903.7,1329.9z"/>
<path class="st1" d="M1099.4,327c-19.3,0-38.4,0.7-57.4,2l-726.5,726.5c-1.5,19.9-2.2,39.9-2.2,60c0,4.7,0.1,9.3,0.1,13.9
	l802.3-802.3C1110.3,327.1,1104.8,327,1099.4,327z"/>
<path class="st2" d="M945.7,1359.8l157.3-157.3c-13.2-9.5-27-20-40.2-31.7l-159.1,159.1C921.6,1336.3,934.7,1347.4,945.7,1359.8z"/>
<path class="st1" d="M960,339.1L325.8,973.3c-4.8,27.1-8.3,54.5-10.3,82.2L1042,329.1C1014.4,331,987,334.4,960,339.1z"/>
<path class="st1" d="M1260.1,1117.2l473.1-473.1c-10.2-13.7-20.8-27-31.8-40L1219,1086.5C1230,1095.9,1243.5,1106,1260.1,1117.2z"/>
<path class="st1" d="M1195.8,1062.8c6.1,7.7,13.8,15.4,23.2,23.6L1701.4,604c-11-12.9-22.4-25.5-34.2-37.7L1185.7,1048
	C1188.5,1053,1191.9,1057.9,1195.8,1062.8z"/>
<path class="st1" d="M1382.7,1216.5c10.2,12.6,18.8,25.9,25.8,39.8l426.7-426.7c-2.9-7.4-5.8-14.9-8.9-22.2
	c-4-9.5-8.2-18.9-12.5-28.2l-433.9,433.9C1380.9,1214.2,1381.8,1215.4,1382.7,1216.5z"/>
<path class="st1" d="M1266.4,1121.4c12.2,7.9,24.6,16.1,36.8,24.6l459.5-459.5c-9.3-14.5-19.1-28.6-29.4-42.5l-473.1,473.1
	C1262.2,1118.6,1264.3,1120,1266.4,1121.4z"/>
<path class="st1" d="M1379.9,1213.1l433.9-433.9c-7.6-16.2-15.6-32.1-24.2-47.6l-445.7,445.7
	C1356.9,1188.4,1369.1,1200.3,1379.9,1213.1z"/>
<path class="st1" d="M1343.9,1177.3l445.7-445.7c-8.5-15.3-17.4-30.3-26.9-45l-459.5,459.5C1317.2,1155.9,1331,1166.2,1343.9,1177.3
	z"/>
<path class="st1" d="M1657.4,1674.1c35.5-35.4,67.2-73.7,95-114.6L1544,1767.9C1584.4,1740.4,1622.3,1709.1,1657.4,1674.1z"/>
<path class="st3" d="M1218.8,1302.4c-4.4-8.2-10.2-16.1-17.5-24c-4.6-5-9.7-9.9-15.4-14.9l-170,170c15.4,11,31.5,18.6,48.8,23.1
	L1218.8,1302.4z"/>
<path class="st2" d="M1104.2,1461.3c10.4,0,20.4-0.8,29.9-2.4l95.9-95.9c0.3-3.6,0.5-7.3,0.5-11c0-18.9-3.6-34.8-11.7-49.7
	l-154.2,154.2C1077.1,1459.7,1090.3,1461.3,1104.2,1461.3z"/>
<path class="st1" d="M1173.3,993v7.3c0,17.5,4,33,12.3,47.7l481.6-481.6c-3.1-3.2-6.1-6.3-9.3-9.4c-8.9-8.9-18-17.5-27.2-26
	l-457.5,457.5C1173.3,990,1173.3,991.5,1173.3,993z"/>
<path class="st2" d="M1015.8,1433.4l170-170c-11.6-10.2-25.3-20.5-40.5-31.4l-166.7,166.7C990.8,1412.7,1003,1424.3,1015.8,1433.4z"
	/>
<path class="st1" d="M865.3,362L348.9,878.3c-9.7,31.1-17.4,62.8-23.1,95L960,339.1C928,344.8,896.3,352.4,865.3,362z"/>
<path class="st3" d="M1196.4,1431.1c19.7-17.2,31.2-40.6,33.6-68l-95.9,95.9C1158.9,1454.8,1180.1,1445.4,1196.4,1431.1z"/>
<path class="st1" d="M792.2,388.6c-16,6.8-31.7,14-47.2,21.8L397.5,757.9c-8.1,16.2-15.7,32.7-22.8,49.5
	c-9.7,23.3-18.3,46.9-25.8,70.9L865.3,362C840.6,369.6,816.2,378.5,792.2,388.6z"/>
<path class="st1" d="M1406.5,1842.4c48.5-20.4,94.5-45.3,137.5-74.5l208.4-208.4c28.9-42.6,53.6-88,73.8-135.9
	c2.3-5.5,4.5-11,6.7-16.5l-441.4,441.4C1396.4,1846.6,1401.5,1844.5,1406.5,1842.4z"/>
<path class="st1" d="M542.5,556.9c-59.1,59.3-107.7,126.7-145,201L745,410.4C670.1,447.9,602.2,497.1,542.5,556.9z"/>
<path class="st1" d="M1183.4,331.4l-866,866c2.1,21.2,5.1,42.2,8.9,63l920-920C1225.5,336.6,1204.6,333.6,1183.4,331.4z"/>
<path class="st1" d="M1115.7,327.2l-802.3,802.3c0.4,22.8,1.7,45.5,3.9,67.9l866-866C1161,329,1138.5,327.7,1115.7,327.2z"/>
<path class="st1" d="M1391.4,1848.6l441.4-441.4c13.6-34.3,24.6-69.4,33.2-105.1L1286.1,1882
	C1321.9,1873.3,1357,1862.1,1391.4,1848.6z"/>
<path class="st2" d="M973.1,1391.9c1.9,2.3,3.8,4.5,5.6,6.7l166.7-166.7c-10.9-7.8-22.6-15.8-34.8-24.2c-2.5-1.7-5-3.5-7.5-5.3
	l-157.3,157.3c2.3,2.6,4.5,5.2,6.7,7.9L973.1,1391.9z"/>
<path class="st3" d="M989.1,1603.9l-226,226c9.3,4.3,18.6,8.5,28.1,12.5c7.4,3.1,14.8,6.1,22.3,9l236.2-236.2
	C1028.7,1612.7,1008.4,1609,989.1,1603.9z"/>
<path class="st1" d="M814.8,1344.3c3.1-2.7,6.4-5.1,9.9-7.3l203.2-203.2c-1.4-1.8-2.7-3.6-4-5.4c-9.2-12.7-16.6-26-22.4-40.1
	l-518.9,518.9c10.5,13.3,21.5,26.3,32.9,39l284.6-284.6C804.6,1354.3,809.9,1348.6,814.8,1344.3z"/>
<path class="st1" d="M987.6,1030.4L452,1565.9c9.7,14.1,19.9,27.9,30.5,41.3l518.9-518.9C994.1,1070.3,989.5,1051,987.6,1030.4z"/>
<path class="st2" d="M788.9,1403c0-17.5,4.8-31.1,11.2-41.4l-284.6,284.6c8.6,9.5,17.4,18.8,26.4,27.9c2.9,2.9,5.9,5.9,8.9,8.8
	L794,1439.7C790.6,1426.9,788.9,1414.8,788.9,1403z"/>
<path class="st3" d="M815.5,1490l-227.2,227.2c13,11.1,26.3,21.8,39.9,32l219.7-219.7C835.1,1517.1,824.2,1503.9,815.5,1490z"/>
<path class="st2" d="M847.9,1529.4l-219.7,219.7c13.8,10.3,27.9,20.1,42.4,29.5L888.3,1561C873.3,1551.4,859.8,1540.8,847.9,1529.4z
	"/>
<path class="st1" d="M986.7,1008.8v-6.1c0-24.5,5.4-44.4,16.2-59.4L424,1522.1c8.9,14.9,18.2,29.5,28,43.8l535.6-535.6
	C987,1023.3,986.7,1016.2,986.7,1008.8z"/>
<path class="st2" d="M799,1455.9c-2-5.5-3.7-10.9-5-16.2l-243.2,243.2c12.2,11.9,24.7,23.3,37.6,34.3L815.5,1490
	C808.6,1479,803,1467.6,799,1455.9z"/>
<path class="st3" d="M903.3,1570c-5.2-2.9-10.2-5.9-15-9l-217.6,217.6c14.6,9.5,29.6,18.5,44.9,27l219.9-219.9
	C924.2,1581,913.5,1575.7,903.3,1570z"/>
<path class="st1" d="M995.3,652.7c9.6-9.1,20.7-16.6,32.6-22.1l277-277c-19.4-5.1-38.9-9.5-58.7-13.2l-920,920
	c3.6,19.8,7.9,39.4,13,58.9L969,689.5C975.1,676,983.9,663.5,995.3,652.7z"/>
<path class="st2" d="M960,732.2c0-14.8,3.1-29.3,9.1-42.7l-629.8,629.8c4.9,18.6,10.4,37,16.6,55.2l609.2-609.2
	C961.8,754.8,960,743.7,960,732.2z"/>
<path class="st1" d="M1077.6,619.5c10.2,0,20.1,1.3,29.5,3.9L1360,370.5c-18.2-6.3-36.5-11.9-55-16.8l-277,277
	C1043.6,623.4,1060.6,619.5,1077.6,619.5z"/>
<path class="st1" d="M992.4,809.9l-616.6,616.6c7,16.7,14.6,33.1,22.7,49.1l637.9-637.9C1019.6,831.8,1004.6,822.2,992.4,809.9z"/>
<path class="st1" d="M1173.2,988.5L1630.7,531c-12.6-11.5-25.6-22.5-38.8-33.1L1151.8,938C1164.5,951.2,1172.2,968.5,1173.2,988.5z"
	/>
<path class="st2" d="M1010.7,934c2.5-2.5,5.3-4.7,8.2-6.8l85.1-85.1c-8.6,1.9-17.5,2.9-26.5,2.9c-14.5,0-28.4-2.5-41.2-7.1
	l-637.9,637.9c8,15.8,16.5,31.3,25.5,46.4l578.8-578.8C1005.2,939.9,1007.8,936.8,1010.7,934z"/>
<path class="st2" d="M965.1,765.3l-609.2,609.2c5.6,16.5,11.8,32.9,18.6,49.1c0.4,1,0.8,2,1.2,2.9l616.6-616.6
	C980,797.4,970.6,782.2,965.1,765.3z"/>
<path class="st1" d="M1193.9,732.2c0,7.5-0.7,14.9-2.2,22.1L1507.1,439c-15.1-9.1-30.5-17.6-46.2-25.6l-276,276
	C1190.7,702.7,1193.9,717.2,1193.9,732.2z"/>
<path class="st1" d="M1184.9,689.4l276-276c-16-8.2-32.3-15.8-49-22.9l-257.7,257.7C1167.3,659.5,1177.9,673.6,1184.9,689.4z"/>
<path class="st1" d="M1887.6,1136.7l-767,767c26.1-0.7,52.1-2.7,77.7-5.8l683.5-683.5C1885,1188.7,1886.9,1162.8,1887.6,1136.7z"/>
<path class="st1" d="M1198.3,1897.9c29.7-3.7,59-9,87.9-16L1866,1302c6.9-28.8,12.2-58.1,15.8-87.7L1198.3,1897.9z"/>
<path class="st1" d="M1151.8,938l440.1-440.1c-13.4-10.7-27.1-20.9-41.2-30.7l-445.9,445.9C1124,917.1,1140.1,925.8,1151.8,938z"/>
<path class="st2" d="M935.4,1585.7l-219.9,219.9c15.5,8.6,31.4,16.7,47.6,24.3l226-226C970.3,1599,952.3,1593,935.4,1585.7z"/>
<path class="st1" d="M1159.2,812.7c-15.5,14.7-34.5,24.7-55.1,29.3l-85.1,85.1c15.3-11,35.8-16.6,61.1-16.6c8.7,0,17.1,0.9,24.9,2.5
	l445.9-445.9c-14.2-9.9-28.8-19.3-43.7-28.2l-315.3,315.3C1187.3,776.5,1176.1,796.7,1159.2,812.7z"/>
<path class="st2" d="M1111.5,1618.8c-21.2,0-41.9-1.2-61.9-3.6l-236.2,236.2c17.6,6.8,35.4,13,53.4,18.4l251.1-251.1
	C1115.8,1618.8,1113.7,1618.8,1111.5,1618.8z"/>
<path class="st1" d="M1154.2,648.2l257.7-257.7c-1.5-0.6-2.9-1.3-4.4-1.9c-15.7-6.6-31.5-12.6-47.5-18.2l-252.9,252.9
	C1124.7,628,1140.8,636.6,1154.2,648.2z"/>
<path class="st3" d="M1118,1618.8l-251.1,251.1c18.8,5.7,37.7,10.7,56.9,15l274.1-274.1C1172.4,1615.7,1145.6,1618.4,1118,1618.8z"
	/>
<path class="st1" d="M1887.9,1115.5c0-16.6-0.5-33.1-1.5-49.5l-836.5,836.5c16,0.9,32.1,1.4,48.3,1.4c7.5,0,15-0.1,22.4-0.3l767-767
	C1887.8,1129.7,1887.9,1122.6,1887.9,1115.5z"/>
<path class="st2" d="M1197.9,1610.8l-274.1,274.1c20.1,4.5,40.3,8.2,60.8,11.1l326.9-326.9
	C1278.5,1588.6,1239.9,1602.7,1197.9,1610.8z"/>
<path class="st1" d="M1879.8,1000.8l-477.1,477.1c-16.3,29.3-39.3,55-68.6,76.4c-7.2,5.2-14.7,10.2-22.5,14.8L984.5,1896
	c21.6,3.1,43.4,5.3,65.3,6.6l836.5-836.5C1885.1,1044.1,1882.9,1022.3,1879.8,1000.8z"/>
<path class="st4" d="M534,548.5c-7.8,7.8-15.3,15.7-22.8,23.8l48.4-48.4C550.9,531.9,542.4,540.1,534,548.5z"/>
<path class="st4" d="M1986.4,1541.1l-27.7,27.7c-45.7,85.2-103.9,163.1-173.5,232.5c-68.8,68.6-146,126-230.3,171.3l-27.7,27.7
	c41.4-20.4,81.6-43.7,119.9-69.6c31.8-21.6,62.5-45.1,91.8-70.2l108.2-108.2C1902.6,1687.7,1949.2,1617,1986.4,1541.1z"/>
<path class="st4" d="M1474.8,2011.1c-16.6,7.1-33.3,13.7-50.1,19.8l-19.5,19.5c25-8.4,49.8-17.8,74.4-28.3
	c16-6.8,31.9-14.2,47.7-21.9l27.7-27.7C1528.8,1986.6,1502.2,1999.5,1474.8,2011.1z"/>
<path class="st4" d="M1839.9,825l4.6-4.6c-2.3-5.9-4.7-11.8-7.1-17.6c-4.6-11-9.5-21.9-14.6-32.6l-4.5,4.5
	C1826,791.2,1833.2,808,1839.9,825z"/>
<path class="st4" d="M1858.4,878.4l4.8-4.8c-5.6-17.9-11.8-35.6-18.7-53.2l-4.6,4.6C1846.7,842.5,1852.9,860.3,1858.4,878.4z"/>
<path class="st4" d="M1818.3,774.7l4.5-4.5c-7.6-16.1-15.8-31.9-24.4-47.4l-4.4,4.4C1802.6,742.7,1810.7,758.6,1818.3,774.7z"/>
<path class="st4" d="M1793.9,727.2l4.4-4.4c-8.5-15.3-17.5-30.2-27-44.8l-4.4,4.4C1776.4,697,1785.4,711.9,1793.9,727.2z"/>
<path class="st4" d="M1737.5,639.9l4.3-4.3c-10.2-13.6-20.8-27-31.9-40l-4.3,4.3C1716.7,612.8,1727.3,626.2,1737.5,639.9z"/>
<path class="st4" d="M1766.9,682.3l4.4-4.4c-9.4-14.4-19.2-28.6-29.5-42.4l-4.3,4.3C1747.8,653.7,1757.6,667.8,1766.9,682.3z"/>
<path class="st4" d="M1847.2,1752.2L1739,1860.4c18.9-16.2,37.1-33.1,54.7-50.6C1812.3,1791.2,1830.1,1772,1847.2,1752.2z"/>
<path class="st4" d="M1873.6,935l5-5c-4.4-19-9.6-37.8-15.4-56.5l-4.8,4.8C1864.2,897,1869.2,915.9,1873.6,935z"/>
<path class="st4" d="M1874,1294.1l8-8c6-28.1,10.5-56.6,13.5-85.4l-6.8,6.8C1885.4,1236.9,1880.4,1265.8,1874,1294.1z"/>
<path class="st4" d="M1843.3,1396.7l10.1-10.1c11.7-32.9,21.3-66.4,28.6-100.5l-8,8C1866,1329.2,1855.7,1363.5,1843.3,1396.7z"/>
<path class="st4" d="M1888.7,1207.5l6.8-6.8c2.6-25.2,4.1-50.6,4.3-76.2l-6.1,6.1C1893.3,1156.6,1891.6,1182.2,1888.7,1207.5z"/>
<path class="st4" d="M1893.9,1115.5c0,5-0.1,10-0.2,15.1l6.1-6.1c0-3,0.1-6,0.1-9c0-20.4-0.7-40.6-2.2-60.8l-5.6,5.6
	C1893.2,1078.6,1893.9,1097,1893.9,1115.5z"/>
<path class="st4" d="M1892,1060.4l5.6-5.6c-1.6-21.7-4-43.2-7.3-64.5l-5.3,5.3C1888.2,1016.9,1890.5,1038.5,1892,1060.4z"/>
<path class="st4" d="M1885,995.5l5.3-5.3c-3.1-20.2-7-40.3-11.7-60.2l-5,5C1878.2,954.9,1882,975.1,1885,995.5z"/>
<path class="st4" d="M1153.1,2086.8l-12.6,12.6c26.3-1.1,52.5-3.3,78.5-6.6l14-14C1206.5,2082.6,1179.9,2085.3,1153.1,2086.8z"/>
<path class="st4" d="M422.9,1810.7l-8.5,8.5c12.2,11.9,24.6,23.4,37.3,34.6l8.5-8.5C447.6,1834.1,435.1,1822.5,422.9,1810.7z"/>
<path class="st4" d="M413.5,1801.3c-8.9-8.9-17.5-17.9-26-27l-8.5,8.5c8.5,9.1,17.2,18.1,26,27c3.1,3.1,6.3,6.3,9.5,9.4l8.5-8.5
	C419.8,1807.6,416.6,1804.5,413.5,1801.3z"/>
<path class="st4" d="M540.4,1908.8l-8.6,8.6c14.1,10,28.4,19.7,42.9,29l8.7-8.7C568.8,1928.5,554.5,1918.9,540.4,1908.8z"/>
<path class="st4" d="M499.4,1878l-8.5,8.5c13.4,10.7,27.1,21,41,30.9l8.6-8.6C526.5,1898.9,512.8,1888.6,499.4,1878z"/>
<path class="st4" d="M460.3,1845.2l-8.5,8.5c12.8,11.3,25.8,22.2,39.1,32.8l8.5-8.5C486.1,1867.4,473.1,1856.5,460.3,1845.2z"/>
<path class="st4" d="M353.8,1736.1l-8.5,8.5c10.9,13,22.1,25.7,33.7,38.2l8.5-8.5C375.9,1761.8,364.7,1749.1,353.8,1736.1z"/>
<path class="st4" d="M214.5,1516l-9,9c7.5,16.2,15.5,32.2,23.9,48l8.9-8.9C229.9,1548.3,222,1532.2,214.5,1516z"/>
<path class="st4" d="M322,1696l-8.6,8.6c10.3,13.6,20.9,26.9,31.9,40l8.5-8.5C342.8,1723,332.2,1709.6,322,1696z"/>
<path class="st4" d="M238.2,1564.1l-8.9,8.9c8.3,15.5,16.9,30.8,26,45.9l8.7-8.7C255.1,1595,246.4,1579.7,238.2,1564.1z"/>
<path class="st4" d="M264.1,1610.1l-8.7,8.7c9,14.9,18.3,29.5,28,43.9l8.7-8.7C282.3,1639.6,273,1625,264.1,1610.1z"/>
<path class="st4" d="M292,1654l-8.7,8.7c9.6,14.2,19.6,28.2,30,41.9l8.6-8.6C311.6,1682.3,301.6,1668.3,292,1654z"/>
<path class="st4" d="M1705.7,599.8l4.3-4.3c-11-12.9-22.4-25.4-34.2-37.7l-4.2,4.2C1683.3,574.3,1694.7,586.9,1705.7,599.8z"/>
<path class="st4" d="M1011.7,2084.5l-11,11c22.4,2.3,44.9,3.7,67.5,4.4l11.7-11.7C1057,2087.8,1034.3,2086.5,1011.7,2084.5z"/>
<path class="st4" d="M947.8,2076.5l-10.4,10.4c21,3.5,42.1,6.4,63.3,8.6l11-11C990.3,2082.5,969,2079.9,947.8,2076.5z"/>
<path class="st4" d="M583.4,1937.7l-8.7,8.7c14.7,9.4,29.7,18.4,44.9,27l8.8-8.8C613.1,1956.1,598.1,1947.1,583.4,1937.7z"/>
<path class="st4" d="M1321.8,2061.9l-16,16c33.5-7.4,66.6-16.5,99.4-27.5l19.5-19.5C1390.8,2043.2,1356.5,2053.6,1321.8,2061.9z"/>
<path class="st4" d="M1232.9,2078.9l-14,14c29.2-3.7,58.1-8.6,86.8-14.9l16-16C1292.4,2069,1262.8,2074.7,1232.9,2078.9z"/>
<path class="st4" d="M1098.2,2088.4c-6.1,0-12.2-0.1-18.3-0.2l-11.7,11.7c10,0.3,20,0.5,30,0.5c14.1,0,28.3-0.3,42.3-0.9l12.6-12.6
	C1134.9,2087.8,1116.6,2088.4,1098.2,2088.4z"/>
<path class="st4" d="M722.6,2011.1c-15.9-6.8-31.7-14.1-47.2-21.7l-9,9c16.1,8,32.5,15.6,49.1,22.8l9.1-9.1
	C724,2011.7,723.3,2011.4,722.6,2011.1z"/>
<path class="st4" d="M628.4,1964.7l-8.8,8.8c15.4,8.7,31.1,17,46.9,24.9l9-9C659.5,1981.6,643.8,1973.3,628.4,1964.7z"/>
<path class="st4" d="M887.6,2064.8l-10,10c19.8,4.7,39.7,8.7,59.8,12.1l10.4-10.4C927.6,2073.3,907.5,2069.4,887.6,2064.8z"/>
<path class="st4" d="M724.7,2012l-9.1,9.1c0.8,0.3,1.5,0.7,2.3,1c16.2,7,32.6,13.4,49.1,19.5l9.4-9.4
	C759,2026.1,741.8,2019.3,724.7,2012z"/>
<path class="st4" d="M830.6,2050l-9.7,9.7c18.8,5.7,37.7,10.7,56.7,15.2l10-10C868.5,2060.5,849.4,2055.5,830.6,2050z"/>
<path class="st4" d="M776.4,2032.3l-9.4,9.4c17.8,6.5,35.8,12.5,53.9,18l9.7-9.7C812.4,2044.6,794.3,2038.7,776.4,2032.3z"/>
<path class="st4" d="M1084.5,142.8l12.1-12.1c-25.1,0.1-50.1,1.1-75,3.1l-13.2,13.2C1033.6,144.6,1059,143.2,1084.5,142.8z"/>
<path class="st4" d="M1008.4,147l13.2-13.2c-27.5,2.2-54.9,5.6-82,10.2l-14.8,14.8C952.4,153.6,980.3,149.7,1008.4,147z"/>
<path class="st4" d="M1099.4,142.7c18.6,0,37.1,0.5,55.5,1.6l11.3-11.3c-22.2-1.5-44.4-2.3-66.8-2.3c-0.9,0-1.9,0-2.8,0l-12.1,12.1
	C1089.4,142.7,1094.4,142.7,1099.4,142.7z"/>
<path class="st4" d="M1220.7,150.3l10.7-10.7c-21.6-3-43.3-5.2-65.2-6.7l-11.3,11.3C1176.9,145.5,1198.9,147.6,1220.7,150.3z"/>
<path class="st4" d="M716.9,222.8l22.4-22.4c-6.8,2.7-13.6,5.5-20.4,8.4c-42.6,18.2-83.7,39.3-123.1,63.1l-40,40
	C606.6,277.3,660.4,247.5,716.9,222.8z"/>
<path class="st4" d="M924.7,158.8l14.8-14.8c-31,5.2-61.7,11.9-92,20.2l-17.4,17.4C861.3,172.3,892.9,164.7,924.7,158.8z"/>
<path class="st4" d="M723.7,219.9c34.9-15,70.5-27.7,106.5-38.4l17.4-17.4c-36.6,9.9-72.7,22-108.2,36.3L717,222.8
	C719.2,221.9,721.4,220.9,723.7,219.9z"/>
<path class="st4" d="M1475.8,219.9c8.1,3.4,16.1,7,24,10.7l9-9c-9.4-4.4-18.8-8.6-28.4-12.7c-7.3-3.1-14.5-6.1-21.8-9l-9.3,9.3
	C1458.3,212.6,1467.1,216.2,1475.8,219.9z"/>
<path class="st4" d="M1282.6,160.3l10.2-10.2c-20.3-4.2-40.8-7.6-61.4-10.5l-10.7,10.7C1241.5,153,1262.1,156.3,1282.6,160.3z"/>
<path class="st4" d="M1449.5,209.1l9.3-9.3c-17.4-7-34.9-13.4-52.6-19.3l-9.5,9.5C1414.4,195.9,1432,202.2,1449.5,209.1z"/>
<path class="st4" d="M1341.1,173.7l9.8-9.8c-19.2-5.2-38.6-9.8-58.1-13.8l-10.2,10.2C1302.2,164.2,1321.7,168.6,1341.1,173.7z"/>
<path class="st4" d="M1396.6,190.1l9.5-9.5c-18.3-6.1-36.7-11.7-55.2-16.7l-9.8,9.8C1359.7,178.6,1378.3,184,1396.6,190.1z"/>
<path class="st4" d="M142.6,940.9l-14.8,14.8c-4.6,27.1-7.9,54.5-10.1,82l13.2-13.2C133.5,996.4,137.5,968.6,142.6,940.9z"/>
<path class="st4" d="M134.2,1236.8l-10.7,10.7c2.8,20.6,6.3,41.1,10.5,61.4l10.2-10.2C140.2,1278.2,136.9,1257.6,134.2,1236.8z"/>
<path class="st4" d="M128.1,1171l-11.3,11.3c1.5,21.8,3.7,43.6,6.7,65.2l10.7-10.7C131.4,1215,129.4,1193.1,128.1,1171z"/>
<path class="st4" d="M144.2,1298.7l-10.2,10.2c4,19.5,8.6,38.9,13.8,58.1l9.8-9.8C152.5,1337.8,148,1318.3,144.2,1298.7z"/>
<path class="st4" d="M126.5,1115.5c0-5,0.1-9.9,0.1-14.9l-12.1,12.1c0,0.9,0,1.9,0,2.8c0,22.4,0.8,44.6,2.3,66.8l11.3-11.3
	C127.1,1152.6,126.5,1134.1,126.5,1115.5z"/>
<path class="st4" d="M157.6,1357.2l-9.8,9.8c5,18.5,10.6,36.9,16.7,55.2l9.5-9.5C167.9,1394.4,162.5,1375.9,157.6,1357.2z"/>
<path class="st4" d="M130.9,1024.5l-13.2,13.2c-2,24.9-3,49.9-3.1,75l12.1-12.1C127.1,1075.1,128.5,1049.7,130.9,1024.5z"/>
<path class="st4" d="M295.7,572.1l-40,40c-23.7,39.2-44.7,80-62.8,122.4c-3,7-5.9,14-8.7,21l22.4-22.4
	C231.3,676.6,261.1,622.8,295.7,572.1z"/>
<path class="st4" d="M203.9,739.3c0.9-2.1,1.8-4.1,2.7-6.1l-22.4,22.4c-14.3,35.5-26.4,71.6-36.3,108.2l17.4-17.4
	C176,810.1,188.9,774.4,203.9,739.3z"/>
<path class="st4" d="M414.1,429.7c44-43.9,91.3-83.2,141.8-117.7l40-40c-68.8,41.6-132.5,91.5-190.3,149.3
	c-58,58-108.1,121.9-149.8,190.9l40-40C330.4,521.5,369.9,473.9,414.1,429.7z"/>
<path class="st4" d="M1548,254.3l8.9-8.9c-15.8-8.4-31.8-16.3-48-23.9l-9,9C1516.2,238.1,1532.2,246,1548,254.3z"/>
<path class="st4" d="M165.3,846.3l-17.4,17.4c-8.2,30.4-14.9,61.1-20.1,92l14.8-14.8C148.6,909,156.1,877.5,165.3,846.3z"/>
<path class="st4" d="M2073.5,1115.5c0,17.5-0.5,35-1.4,52.4l12.6-12.6c0.5-13.2,0.8-26.5,0.8-39.8c0-10.8-0.2-21.6-0.6-32.4
	l-11.7,11.7C2073.4,1101.7,2073.5,1108.6,2073.5,1115.5z"/>
<path class="st4" d="M2061.2,963.1l10.4-10.4c-3.4-20-7.5-39.9-12.2-59.7l-10,10C2054.1,922.9,2058,942.9,2061.2,963.1z"/>
<path class="st4" d="M2073.2,1094.8l11.7-11.7c-0.7-22.5-2.3-45-4.6-67.3l-11,11C2071.4,1049.4,2072.7,1072.1,2073.2,1094.8z"/>
<path class="st4" d="M2049.5,902.9l10-10c-4.5-19-9.6-37.9-15.3-56.6l-9.6,9.6C2040.1,864.8,2045.1,883.8,2049.5,902.9z"/>
<path class="st4" d="M2069.4,1026.8l11-11c-2.2-21.2-5.1-42.3-8.7-63.2l-10.4,10.4C2064.7,984.2,2067.4,1005.5,2069.4,1026.8z"/>
<path class="st4" d="M1996,739.3c0.1,0.3,0.3,0.7,0.4,1l9.1-9.1c-7.2-16.6-14.8-32.9-22.8-49l-9,9
	C1981.6,706.9,1989.1,723,1996,739.3z"/>
<path class="st4" d="M2034.6,846l9.6-9.6c-5.5-18.1-11.5-36-18.1-53.8l-9.4,9.4C2023.3,809.8,2029.2,827.8,2034.6,846z"/>
<path class="st4" d="M2016.8,791.9l9.4-9.4c-5.9-16.1-12.3-32.1-19.1-48c-0.5-1.1-1-2.2-1.5-3.4l-9.1,9.1
	C2003.8,757.4,2010.5,774.6,2016.8,791.9z"/>
<path class="st4" d="M1995.8,1491.8c-11.3,26.3-23.7,51.9-37.1,77l27.7-27.7c7.2-14.7,14-29.5,20.5-44.6
	c10.9-25.4,20.7-51.2,29.4-77.2l-19.5,19.5C2010.3,1456.6,2003.4,1474.3,1995.8,1491.8z"/>
<path class="st4" d="M173.9,1412.7l-9.5,9.5c5.9,17.7,12.3,35.2,19.3,52.6l9.3-9.3C186.1,1448.1,179.8,1430.5,173.9,1412.7z"/>
<path class="st4" d="M1594.1,280.2l8.7-8.7c-15.1-9.1-30.3-17.7-45.9-26l-8.9,8.9C1563.6,262.5,1579,271.1,1594.1,280.2z"/>
<path class="st4" d="M2047.5,1336.2l16-16c6.2-28.6,11.1-57.5,14.7-86.6l-13.9,13.9C2060.1,1277.3,2054.5,1306.9,2047.5,1336.2z"/>
<path class="st4" d="M2064.3,1247.5l13.9-13.9c3.2-25.9,5.3-52,6.4-78.3l-12.6,12.6C2070.6,1194.6,2068,1221.2,2064.3,1247.5z"/>
<path class="st4" d="M2016.8,1438.8l19.5-19.5c10.9-32.6,20-65.7,27.3-99.1l-16,16C2039.3,1370.8,2029,1405.1,2016.8,1438.8z"/>
<path class="st4" d="M1973.8,691.1l9-9c-7.9-15.9-16.3-31.5-25-46.9l-8.8,8.8C1957.7,659.5,1965.9,675.2,1973.8,691.1z"/>
<path class="st4" d="M1758.4,403.4l8.5-8.5c-12.5-11.6-25.2-22.8-38.2-33.7l-8.5,8.5C1733.1,380.6,1745.9,391.8,1758.4,403.4z"/>
<path class="st4" d="M1720.1,369.7l8.5-8.5c-13.1-11-26.4-21.6-40-31.8l-8.6,8.6C1693.6,348.2,1707,358.8,1720.1,369.7z"/>
<path class="st4" d="M1638,308.1l8.7-8.7c-14.4-9.7-29-19.1-43.9-28l-8.7,8.7C1609,289.1,1623.6,298.4,1638,308.1z"/>
<path class="st4" d="M1680,337.9l8.6-8.6c-13.7-10.4-27.7-20.4-41.9-30l-8.7,8.7C1652.3,317.6,1666.3,327.6,1680,337.9z"/>
<path class="st4" d="M1785.8,429.7c3,3,6,6,9,9.1l8.5-8.5c-3-3-6-6.1-9-9.1c-9-9-18.1-17.8-27.4-26.4l-8.5,8.5
	C1767.6,412,1776.8,420.8,1785.8,429.7z"/>
<path class="st4" d="M1949,644.1l8.8-8.8c-8.6-15.2-17.6-30.1-27.1-44.8l-8.7,8.7C1931.4,613.9,1940.4,628.8,1949,644.1z"/>
<path class="st4" d="M1829.4,476.1l8.5-8.5c-11.2-12.7-22.7-25.1-34.6-37.3l-8.5,8.5C1806.7,451,1818.2,463.4,1829.4,476.1z"/>
<path class="st4" d="M1922,599.1l8.7-8.7c-9.3-14.5-19-28.8-29-42.8l-8.6,8.6C1903.1,570.3,1912.7,584.6,1922,599.1z"/>
<path class="st4" d="M1893.1,556.2l8.6-8.6c-10-13.9-20.3-27.5-31-40.9l-8.5,8.5C1872.8,528.6,1883.1,542.3,1893.1,556.2z"/>
<path class="st4" d="M1862.2,515.2l8.5-8.5c-10.6-13.3-21.5-26.3-32.8-39.1l-8.5,8.5C1840.7,488.9,1851.6,501.9,1862.2,515.2z"/>
<path class="st4" d="M1596.2,493.7l4.3-4.3c-13.4-10.7-27.1-21-41.1-30.8l-4.4,4.4C1569.1,472.8,1582.8,483,1596.2,493.7z"/>
<path class="st4" d="M1048.4,322.6l6.4-6.4c-27,1.5-53.7,4.2-80.2,8.3l-7.3,7.3C993.9,327.4,1021,324.3,1048.4,322.6z"/>
<path class="st4" d="M340,887.3l-8.8,8.8c-8.4,30.2-15.1,60.8-20,91.9l7.3-7.3C323.8,948.8,331,917.7,340,887.3z"/>
<path class="st4" d="M758,397.4l12.3-12.3c-77.5,34.8-148.2,81.4-210.7,138.8l-48.4,48.4c-57.5,62.6-104.2,133.4-139.1,211
	l12.3-12.3C462.4,607.1,594.4,475,758,397.4z"/>
<path class="st4" d="M874.2,353.1l8.8-8.8c-32.4,9-64.2,20.1-95.4,33.2c-5.8,2.4-11.5,4.9-17.2,7.5L758,397.4
	C795.2,379.7,834,364.9,874.2,353.1z"/>
<path class="st4" d="M318.5,980.6l-7.3,7.3c-4.2,26.5-7,53.3-8.5,80.4l6.4-6.4C310.9,1034.4,314,1007.3,318.5,980.6z"/>
<path class="st4" d="M967.3,331.8l7.3-7.3c-31,4.8-61.5,11.4-91.6,19.7l-8.8,8.8C904.5,344.2,935.6,337.1,967.3,331.8z"/>
<path class="st4" d="M384.5,770.9l-12.3,12.3c-2.9,6.5-5.7,13-8.5,19.5c-12.8,30.5-23.6,61.6-32.5,93.3l8.8-8.8
	C351.8,847.1,366.7,808.2,384.5,770.9z"/>
<path class="st4" d="M307.3,1115.5c0-18,0.6-35.9,1.7-53.6l-6.4,6.4c-0.9,15.6-1.3,31.4-1.3,47.2c0,8.6,0.1,17.1,0.4,25.7l5.8-5.8
	C307.4,1128.8,307.3,1122.2,307.3,1115.5z"/>
<path class="st4" d="M334.4,1324.2l-4.9,4.9c5,18.5,10.7,36.8,17,54.9l4.7-4.7C345,1361.2,339.4,1342.8,334.4,1324.2z"/>
<path class="st4" d="M321.1,1265.5l-5.2,5.2c3.8,19.6,8.3,39.1,13.5,58.4l4.9-4.9C329.3,1304.9,324.9,1285.4,321.1,1265.5z"/>
<path class="st4" d="M312,1202.8l-5.5,5.5c2.4,21,5.5,41.8,9.5,62.4l5.2-5.2C317.3,1244.9,314.2,1224,312,1202.8z"/>
<path class="st4" d="M307.6,1135.4l-5.8,5.8c0.7,22.5,2.3,44.9,4.8,67.1l5.5-5.5C309.6,1180.6,308.1,1158.1,307.6,1135.4z"/>
<path class="st4" d="M1555,463l4.4-4.4c-14.2-9.9-28.7-19.4-43.5-28.3l-4.4,4.4C1526.2,443.7,1540.8,453.1,1555,463z"/>
<path class="st4" d="M1511.4,434.7l4.4-4.4c-15-9.1-30.4-17.7-46.1-25.8l-4.5,4.5C1480.9,417.1,1496.3,425.6,1511.4,434.7z"/>
<path class="st4" d="M351.2,1379.2l-4.7,4.7c5.2,14.9,10.9,29.7,17,44.3c1,2.5,2.1,5,3.2,7.5l4.6-4.6
	C364,1414.1,357.3,1396.8,351.2,1379.2z"/>
<path class="st4" d="M1635,526.8l4.3-4.3c-12.6-11.5-25.5-22.5-38.8-33.1l-4.3,4.3C1609.5,504.3,1622.4,515.3,1635,526.8z"/>
<path class="st4" d="M1671.5,562.1l4.2-4.2c-3.1-3.2-6.1-6.3-9.3-9.4c-8.9-8.9-18-17.5-27.2-26l-4.3,4.3
	C1647.5,538.2,1659.7,550,1671.5,562.1z"/>
<path class="st4" d="M1465.2,409l4.5-4.5c-15.9-8.2-32.2-16-48.7-23.2l-4.6,4.6C1433,393.1,1449.3,400.8,1465.2,409z"/>
<path class="st4" d="M1416.4,385.9l4.6-4.6c-2.9-1.3-5.9-2.5-8.9-3.8c-14.1-5.9-28.4-11.4-42.7-16.5l-4.7,4.7
	C1382.2,371.9,1399.5,378.6,1416.4,385.9z"/>
<path class="st4" d="M1188.9,325.9l5.5-5.5c-22.1-2.6-44.4-4.2-66.9-5l-5.8,5.8C1144.3,322,1166.7,323.5,1188.9,325.9z"/>
<path class="st4" d="M1251.4,335.3l5.2-5.2c-20.6-4-41.3-7.3-62.2-9.7l-5.5,5.5C1210,328.3,1230.8,331.4,1251.4,335.3z"/>
<path class="st4" d="M1309.8,348.8l4.9-4.9c-19.2-5.3-38.6-9.9-58.2-13.7l-5.2,5.2C1271.1,339.1,1290.6,343.6,1309.8,348.8z"/>
<path class="st4" d="M1364.7,365.7l4.7-4.7c-18-6.4-36.3-12.1-54.7-17.2l-4.9,4.9C1328.4,353.8,1346.7,359.4,1364.7,365.7z"/>
<path class="st4" d="M1099.4,321c7.4,0,14.8,0.1,22.2,0.3l5.8-5.8c-9.3-0.3-18.6-0.5-28-0.5c-14.9,0-29.8,0.4-44.6,1.2l-6.4,6.4
	C1065.3,321.6,1082.3,321,1099.4,321z"/>
<path class="st4" d="M979.3,1901.3l-5.3,5.3c21.3,3.3,42.9,5.7,64.6,7.3l5.6-5.6C1022.3,1906.8,1000.6,1904.4,979.3,1901.3z"/>
<path class="st4" d="M371.2,1431.1l-4.6,4.6c7.1,16.6,14.8,32.9,23,48.9l4.5-4.5C385.9,1464.1,378.3,1447.8,371.2,1431.1z"/>
<path class="st4" d="M203.8,1491.8c-3.7-8.7-7.3-17.4-10.7-26.2l-9.3,9.3c2.9,7.3,5.9,14.5,9,21.7c4.1,9.6,8.3,19.1,12.7,28.5l9-9
	C210.8,1508,207.2,1499.9,203.8,1491.8z"/>
<path class="st4" d="M862.1,1874.7l-4.8,4.8c18.6,5.8,37.4,11,56.4,15.4l5-5C899.6,1885.5,880.7,1880.4,862.1,1874.7z"/>
<path class="st4" d="M1114.5,1909.8l-6.1,6.1c25.7-0.3,51.1-1.8,76.3-4.5l6.8-6.8C1166.2,1907.6,1140.5,1909.3,1114.5,1909.8z"/>
<path class="st4" d="M808.8,1856.1l-4.6,4.6c17.5,6.9,35.2,13.1,53.1,18.8l4.8-4.8C844.1,1869.1,826.3,1862.9,808.8,1856.1z"/>
<path class="st4" d="M918.8,1889.9l-5,5c19.9,4.7,40,8.5,60.2,11.7l5.3-5.3C958.8,1898.2,938.7,1894.4,918.8,1889.9z"/>
<path class="st4" d="M1523.5,1788.3l-18,18c58.3-34.1,112-75.5,160.4-123.8c48.8-48.7,90.6-102.7,124.9-161.5l-18,18
	C1709.5,1639.8,1624.2,1725.1,1523.5,1788.3z"/>
<path class="st4" d="M1191.5,1904.7l-6.8,6.8c28.8-3,57.4-7.6,85.5-13.7l8-8C1249.9,1896.3,1220.9,1901.3,1191.5,1904.7z"/>
<path class="st4" d="M1853.4,1386.6l-10.1,10.1c-18.8,50.1-42.5,97.8-70.5,142.4l18-18c17.4-29.8,32.9-60.7,46.4-92.8
	C1843,1414.5,1848.4,1400.6,1853.4,1386.6z"/>
<path class="st4" d="M1380.9,1859l-10.1,10.1c13.5-4.8,27-10,40.3-15.6c32.6-13.7,64.1-29.4,94.3-47.1l18-18
	C1478.8,1816.4,1431.1,1840.2,1380.9,1859z"/>
<path class="st4" d="M1278.2,1889.9l-8,8c34.1-7.4,67.7-16.9,100.6-28.7l10.1-10.1C1347.7,1871.5,1313.4,1881.9,1278.2,1889.9z"/>
<path class="st4" d="M1098.2,1910c-18.2,0-36.1-0.6-54-1.8l-5.6,5.6c19.7,1.4,39.6,2.1,59.6,2.1c3.4,0,6.8,0,10.2-0.1l6.1-6.1
	C1109.1,1909.9,1103.6,1910,1098.2,1910z"/>
<path class="st4" d="M511.3,1650.5l-4.3,4.3c8.6,9.5,17.4,18.7,26.4,27.8c2.9,3,5.9,5.9,8.9,8.8l4.2-4.2
	C534.4,1675.3,522.6,1663.1,511.3,1650.5z"/>
<path class="st4" d="M447.8,1570.2l-4.4,4.4c9.7,14.1,20,27.8,30.6,41.3l4.3-4.3C467.7,1598.1,457.5,1584.3,447.8,1570.2z"/>
<path class="st4" d="M478.3,1611.5l-4.3,4.3c10.5,13.3,21.5,26.3,33,38.9l4.3-4.3C499.9,1637.9,488.9,1624.9,478.3,1611.5z"/>
<path class="st4" d="M758.6,1834.4l-4.5,4.5c10.7,5.1,21.5,9.9,32.4,14.6c5.9,2.5,11.8,4.9,17.7,7.2l4.6-4.6
	C791.8,1849.4,775,1842.2,758.6,1834.4z"/>
<path class="st4" d="M419.7,1526.4l-4.4,4.4c8.9,14.9,18.3,29.4,28.2,43.7l4.4-4.4C437.9,1556,428.6,1541.4,419.7,1526.4z"/>
<path class="st4" d="M394.1,1480.1l-4.5,4.5c8,15.7,16.6,31.2,25.6,46.2l4.4-4.4C410.6,1511.3,402.1,1495.9,394.1,1480.1z"/>
<path class="st4" d="M711.2,1810l-4.4,4.4c15.5,8.7,31.3,16.9,47.4,24.5l4.5-4.5C742.5,1826.8,726.6,1818.7,711.2,1810z"/>
<path class="st4" d="M546.5,1687.1l-4.2,4.2c12.2,11.9,24.7,23.3,37.5,34.3l4.3-4.3C571.2,1710.4,558.7,1698.9,546.5,1687.1z"/>
<path class="st4" d="M666.3,1782.9l-4.4,4.4c14.6,9.5,29.5,18.6,44.8,27.1l4.4-4.4C695.9,1801.5,680.9,1792.4,666.3,1782.9z"/>
<path class="st4" d="M584.1,1721.4l-4.3,4.3c13,11.1,26.3,21.8,39.9,32l4.3-4.3C610.3,1743.1,597,1732.5,584.1,1721.4z"/>
<path class="st4" d="M624,1753.4l-4.3,4.3c13.8,10.3,27.9,20.2,42.3,29.6l4.4-4.4C651.9,1773.5,637.8,1763.7,624,1753.4z"/>
<path class="st4" d="M482.6,1607.3l-4.2,4.2c10.6,13.3,21.5,26.3,32.9,39l4.2-4.2C504.1,1633.6,493.1,1620.6,482.6,1607.3z"/>
<path class="st4" d="M792.2,388.6c24-10.1,48.3-19,73.1-26.6l8.9-8.9c-40.2,11.8-79,26.6-116.1,44.3l-13,13
	C760.5,402.6,776.2,395.4,792.2,388.6z"/>
<path class="st4" d="M313.3,1115.5c0-20.1,0.7-40.1,2.2-60l-6.4,6.4c-1.2,17.7-1.7,35.6-1.7,53.6c0,6.6,0.1,13.2,0.2,19.8l5.9-5.9
	C313.4,1124.8,313.3,1120.2,313.3,1115.5z"/>
<path class="st4" d="M325.8,973.3l-7.3,7.3c-4.5,26.7-7.6,53.8-9.4,81.3l6.4-6.4C317.5,1027.8,321,1000.4,325.8,973.3z"/>
<path class="st4" d="M374.7,807.4c7-16.8,14.7-33.3,22.8-49.5l-13,13c-17.7,37.2-32.6,76.1-44.5,116.4l9-9
	C356.4,854.4,365,830.7,374.7,807.4z"/>
<path class="st4" d="M542.5,556.9c59.7-59.9,127.6-109,202.5-146.6l13-13C594.4,475,462.4,607.1,384.5,770.9l13-13
	C434.8,683.6,483.4,616.2,542.5,556.9z"/>
<path class="st4" d="M348.9,878.3l-9,9c-8.9,30.4-16.1,61.5-21.5,93.3l7.3-7.3C331.6,941.2,339.3,909.5,348.9,878.3z"/>
<path class="st4" d="M374.5,1423.6c-6.8-16.2-13-32.6-18.6-49.1l-4.7,4.7c6.1,17.6,12.7,34.9,20,51.9l4.6-4.6
	C375.4,1425.6,374.9,1424.6,374.5,1423.6z"/>
<path class="st4" d="M339.3,1319.3l-4.9,4.9c5,18.6,10.6,37,16.8,55.1l4.7-4.7C349.7,1356.3,344.1,1337.9,339.3,1319.3z"/>
<path class="st4" d="M317.4,1197.4l-5.4,5.4c2.3,21.2,5.3,42.1,9.2,62.7l5.1-5.1C322.5,1239.6,319.5,1218.6,317.4,1197.4z"/>
<path class="st4" d="M313.5,1129.5l-5.9,5.9c0.5,22.8,2,45.3,4.4,67.5l5.4-5.4C315.2,1174.9,313.8,1152.3,313.5,1129.5z"/>
<path class="st4" d="M326.3,1260.4l-5.1,5.1c3.7,19.8,8.1,39.4,13.2,58.6l4.9-4.9C334.2,1299.9,329.9,1280.2,326.3,1260.4z"/>
<path class="st4" d="M1099.4,327c5.5,0,10.9,0.1,16.3,0.2l5.9-5.9c-7.4-0.2-14.8-0.3-22.2-0.3c-17.1,0-34.1,0.5-51,1.6l-6.4,6.4
	C1061,327.7,1080.1,327,1099.4,327z"/>
<path class="st4" d="M1360,370.5l4.7-4.7c-18-6.3-36.3-12-54.9-17l-4.9,4.9C1323.5,358.6,1341.8,364.2,1360,370.5z"/>
<path class="st4" d="M1866,1302l8-8c6.4-28.3,11.4-57.2,14.7-86.6l-6.8,6.8C1878.2,1243.9,1873,1273.2,1866,1302z"/>
<path class="st4" d="M1460.8,413.4l4.4-4.4c-16-8.2-32.2-15.9-48.8-23.1l-4.6,4.6C1428.5,397.6,1444.8,405.2,1460.8,413.4z"/>
<path class="st4" d="M1304.9,353.6l4.9-4.9c-19.2-5.2-38.7-9.7-58.4-13.4l-5.1,5.1C1266,344.1,1285.6,348.5,1304.9,353.6z"/>
<path class="st4" d="M1507.1,439l4.3-4.3c-15.1-9.1-30.4-17.7-46.1-25.7l-4.4,4.4C1476.5,421.4,1492,430,1507.1,439z"/>
<path class="st4" d="M1183.4,331.4l5.4-5.4c-22.2-2.4-44.6-4-67.3-4.6l-5.9,5.9C1138.5,327.7,1161,329,1183.4,331.4z"/>
<path class="st4" d="M375.8,1426.6l-4.6,4.6c7.1,16.6,14.7,33,22.9,49l4.4-4.4C390.4,1459.6,382.8,1443.3,375.8,1426.6z"/>
<path class="st4" d="M1042,329.1l6.4-6.4c-27.5,1.7-54.5,4.8-81.1,9.2l-7.3,7.3C987,334.4,1014.4,331,1042,329.1z"/>
<path class="st4" d="M1550.7,467.3l4.3-4.3c-14.2-9.9-28.7-19.3-43.6-28.3l-4.3,4.3C1521.9,448,1536.5,457.4,1550.7,467.3z"/>
<path class="st4" d="M1246.3,340.4l5.1-5.1c-20.6-3.9-41.4-7.1-62.5-9.4l-5.4,5.4C1204.6,333.6,1225.5,336.6,1246.3,340.4z"/>
<path class="st4" d="M960,339.1l7.3-7.3c-31.7,5.3-62.8,12.4-93.1,21.3l-8.9,8.9C896.3,352.4,928,344.8,960,339.1z"/>
<path class="st4" d="M1098.2,1904c-16.2,0-32.3-0.5-48.3-1.4l-5.6,5.6c17.8,1.2,35.8,1.8,54,1.8c5.4,0,10.9-0.1,16.3-0.2l6.1-6.1
	C1113.2,1903.9,1105.7,1904,1098.2,1904z"/>
<path class="st4" d="M1120.6,1903.7l-6.1,6.1c26-0.5,51.7-2.2,77-5.2l6.8-6.8C1172.7,1901,1146.8,1903,1120.6,1903.7z"/>
<path class="st4" d="M923.8,1884.9l-5,5c19.9,4.6,40.1,8.4,60.5,11.4l5.3-5.3C964.1,1893.1,943.8,1889.4,923.8,1884.9z"/>
<path class="st4" d="M984.5,1896l-5.3,5.3c21.4,3.2,43,5.5,64.9,7l5.6-5.6C1027.9,1901.3,1006.1,1899.1,984.5,1896z"/>
<path class="st4" d="M1198.3,1897.9l-6.8,6.8c29.4-3.4,58.3-8.3,86.7-14.8l8-8C1257.3,1888.9,1228,1894.2,1198.3,1897.9z"/>
<path class="st4" d="M1406.5,1842.4c-5,2.1-10,4.1-15,6.1L1381,1859c50.2-18.9,97.9-42.6,142.6-70.7l20.4-20.4
	C1500.9,1797.1,1455,1822.1,1406.5,1842.4z"/>
<path class="st4" d="M1866,1302c-8.6,35.7-19.7,70.8-33.2,105.1l10.4-10.4c12.4-33.2,22.7-67.4,30.7-102.6L1866,1302z"/>
<path class="st4" d="M1286.2,1881.9l-8,8c35.2-8,69.5-18.4,102.7-30.9l10.5-10.5C1357,1862.1,1321.9,1873.3,1286.2,1881.9z"/>
<path class="st4" d="M1826.1,1423.6c-20.2,47.9-44.9,93.3-73.8,135.9l20.4-20.4c28-44.6,51.7-92.3,70.5-142.4l-10.4,10.4
	C1830.6,1412.6,1828.4,1418.1,1826.1,1423.6z"/>
<path class="st4" d="M1657.4,1674.1c-35.1,35-73,66.3-113.4,93.8l-20.4,20.4c100.7-63.3,186-148.6,249.3-249.3l-20.4,20.4
	C1724.5,1600.4,1692.8,1638.7,1657.4,1674.1z"/>
<path class="st4" d="M866.9,1869.9l-4.8,4.8c18.6,5.7,37.5,10.8,56.7,15.2l5-5C904.6,1880.6,885.7,1875.6,866.9,1869.9z"/>
<path class="st4" d="M550.8,1682.9l-4.2,4.2c12.2,11.8,24.7,23.3,37.6,34.3l4.2-4.2C575.5,1706.2,562.9,1694.7,550.8,1682.9z"/>
<path class="st4" d="M588.3,1717.2l-4.2,4.2c12.9,11.1,26.3,21.7,39.9,32l4.2-4.2C614.6,1738.9,601.3,1728.3,588.3,1717.2z"/>
<path class="st4" d="M398.5,1475.7l-4.4,4.4c8,15.8,16.6,31.2,25.6,46.3l4.3-4.3C415,1507,406.5,1491.5,398.5,1475.7z"/>
<path class="st4" d="M541.9,1674.1c-9-9.1-17.8-18.4-26.4-27.9l-4.2,4.2c11.4,12.6,23.1,24.8,35.3,36.6l4.2-4.2
	C547.8,1680,544.8,1677.1,541.9,1674.1z"/>
<path class="st4" d="M424,1522.1l-4.3,4.3c8.9,14.9,18.3,29.5,28.1,43.8l4.3-4.3C442.2,1551.6,432.9,1537,424,1522.1z"/>
<path class="st4" d="M813.5,1851.4l-4.6,4.6c17.5,6.8,35.2,13,53.3,18.6l4.8-4.8C848.9,1864.4,831.1,1858.2,813.5,1851.4z"/>
<path class="st4" d="M452,1565.9l-4.3,4.3c9.7,14.1,19.9,27.9,30.6,41.3l4.2-4.2C471.9,1593.8,461.7,1580,452,1565.9z"/>
<path class="st4" d="M715.5,1805.6l-4.4,4.4c15.5,8.7,31.3,16.8,47.5,24.4l4.5-4.5C746.9,1822.3,731.1,1814.2,715.5,1805.6z"/>
<path class="st4" d="M791.2,1842.4c-9.5-4-18.8-8.2-28.1-12.5l-4.5,4.5c16.4,7.8,33.2,15,50.2,21.6l4.6-4.6
	C806,1848.5,798.6,1845.6,791.2,1842.4z"/>
<path class="st4" d="M628.3,1749.1l-4.2,4.2c13.8,10.3,27.9,20.2,42.3,29.5l4.3-4.3C656.2,1769.3,642.1,1759.4,628.3,1749.1z"/>
<path class="st4" d="M670.6,1778.6l-4.3,4.3c14.6,9.5,29.5,18.5,44.8,27.1l4.4-4.4C700.2,1797.1,685.3,1788.1,670.6,1778.6z"/>
<path class="st4" d="M1407.5,388.6c1.5,0.6,2.9,1.2,4.4,1.9l4.6-4.6c-16.9-7.3-34.2-14-51.7-20.2l-4.7,4.7
	C1376,376,1391.8,382,1407.5,388.6z"/>
<path class="st4" d="M1879.8,1000.8l5.3-5.3c-3-20.4-6.9-40.6-11.4-60.5l-5,5C1873.1,960.1,1876.8,980.3,1879.8,1000.8z"/>
<path class="st4" d="M1813.8,779.2l4.5-4.5c-7.6-16.2-15.7-32-24.4-47.5l-4.4,4.4C1798.1,747.2,1806.2,763,1813.8,779.2z"/>
<path class="st4" d="M1826.3,807.4c3.1,7.4,6.1,14.8,8.9,22.2l4.6-4.6c-6.6-17.1-13.8-33.8-21.6-50.3l-4.5,4.5
	C1818.1,788.5,1822.3,797.9,1826.3,807.4z"/>
<path class="st4" d="M1853.6,883.1l4.8-4.8c-5.6-18.1-11.8-35.8-18.6-53.3l-4.6,4.6C1842,847.3,1848.2,865.1,1853.6,883.1z"/>
<path class="st4" d="M1630.7,531l4.2-4.2c-12.6-11.4-25.5-22.5-38.8-33.1l-4.2,4.2C1605.2,508.5,1618.1,519.5,1630.7,531z"/>
<path class="st4" d="M1886.4,1066l5.6-5.6c-1.5-21.9-3.8-43.5-7-64.9l-5.3,5.3C1882.9,1022.3,1885.1,1044.1,1886.4,1066z"/>
<path class="st4" d="M1733.3,644.1l4.2-4.2c-10.2-13.7-20.8-27-31.8-40l-4.2,4.2C1712.5,617.1,1723.1,630.5,1733.3,644.1z"/>
<path class="st4" d="M1701.4,604.1l4.2-4.2c-11-12.9-22.4-25.5-34.2-37.7l-4.2,4.2C1679.1,578.6,1690.5,591.2,1701.4,604.1z"/>
<path class="st4" d="M1658,557c3.1,3.1,6.2,6.3,9.3,9.4l4.2-4.2c-11.8-12.2-23.9-24-36.5-35.4l-4.2,4.2
	C1640,539.4,1649.1,548.1,1658,557z"/>
<path class="st4" d="M1789.5,731.6l4.4-4.4c-8.5-15.3-17.5-30.3-27-44.9l-4.3,4.3C1772.1,701.3,1781.1,716.3,1789.5,731.6z"/>
<path class="st4" d="M1762.7,686.6l4.3-4.3c-9.4-14.5-19.2-28.6-29.4-42.4l-4.2,4.2C1743.5,658,1753.3,672.1,1762.7,686.6z"/>
<path class="st4" d="M1591.9,497.9l4.2-4.2c-13.4-10.7-27.1-20.9-41.2-30.7l-4.3,4.3C1564.8,477,1578.5,487.2,1591.9,497.9z"/>
<path class="st4" d="M1868.6,940l5-5c-4.4-19.2-9.5-38.1-15.2-56.7l-4.8,4.8C1859.4,901.9,1864.4,920.9,1868.6,940z"/>
<path class="st4" d="M1887.9,1115.5c0,7.1-0.1,14.1-0.3,21.2l6.1-6.1c0.1-5,0.2-10,0.2-15.1c0-18.5-0.6-36.9-1.9-55.1l-5.6,5.6
	C1887.4,1082.4,1887.9,1098.9,1887.9,1115.5z"/>
<path class="st4" d="M1881.9,1214.3l6.8-6.8c2.9-25.3,4.6-50.9,5-76.9l-6.1,6.1C1886.9,1162.8,1885,1188.7,1881.9,1214.3z"/>
<path class="st4" d="M1180.3,693.9l-4.7,4.7c4,10.6,6.3,21.9,6.3,33.7c0,14.3-3,28.1-8.8,40.7l10.3-10.3c2.9-9.6,4.5-19.8,4.5-30.4
	C1187.9,718.7,1185.2,705.8,1180.3,693.9z"/>
<path class="st4" d="M1145.7,656.6l4.2-4.2c-13.6-11.6-30.1-20-47.8-24.1l-5,5C1115.3,636.8,1132,645.1,1145.7,656.6z"/>
<path class="st4" d="M1175.7,698.5l4.7-4.7c-6.6-16.1-17.2-30.3-30.4-41.5l-4.2,4.2C1159,667.9,1169.5,682.3,1175.7,698.5z"/>
<path class="st4" d="M972,732.2c0-26.3,11.2-51.5,31.6-70.8c20-19,47-29.9,74-29.9c6.7,0,13.2,0.6,19.5,1.9l5-5
	c-8-1.8-16.2-2.8-24.6-2.8c-24.3,0-47.3,8.1-66.1,21.6l-26.1,26.1c-12.2,17-19.4,37.3-19.4,59c0,9.8,1.4,19.3,4,28.3l4.9-4.9
	C973,748.1,972,740.3,972,732.2z"/>
<path class="st4" d="M985.4,673.2l26.1-26.1C1001.4,654.4,992.5,663.2,985.4,673.2z"/>
<path class="st4" d="M974.8,755.6l-4.9,4.9c5,17.2,14.3,32.6,26.8,45.1l4.2-4.2C988.4,788.8,979.2,773.1,974.8,755.6z"/>
<path class="st4" d="M1000.9,801.4l-4.2,4.2c12.2,12.3,27.4,21.8,44.4,27.4l4.7-4.7C1028.5,823.1,1013.1,813.7,1000.9,801.4z"/>
<path class="st4" d="M1077.6,833c-11,0-21.7-1.6-31.7-4.6l-4.7,4.7c11.5,3.8,23.7,5.9,36.4,5.9c12.2,0,24-1.9,35.1-5.5l10.6-10.6
	C1109.1,829.5,1093.6,833,1077.6,833z"/>
<path class="st4" d="M1150.9,804c-8.2,7.8-17.6,14.1-27.7,18.9l-10.6,10.6c33.6-10.9,60.5-37,70.8-70.8l-10.3,10.3
	C1168,784.4,1160.5,794.9,1150.9,804z"/>
<path class="st4" d="M1191.7,754.4l-8.3,8.3c-10.3,33.8-37.2,59.9-70.8,70.8l-8.6,8.6c20.6-4.6,39.6-14.7,55.1-29.3
	C1176.1,796.7,1187.3,776.5,1191.7,754.4z"/>
<path class="st4" d="M996.7,805.6l-4.3,4.3c12.2,12.2,27.2,21.9,44,27.9l4.8-4.8C1024.2,827.4,1008.9,817.9,996.7,805.6z"/>
<path class="st4" d="M969.9,760.5l-4.8,4.8c5.4,16.9,14.9,32.1,27.3,44.6l4.3-4.3C984.3,793.1,974.9,777.7,969.9,760.5z"/>
<path class="st4" d="M966,732.2c0-21.7,7.3-42.1,19.4-59l-16.3,16.3c-6,13.5-9.1,27.9-9.1,42.7c0,11.5,1.8,22.6,5.2,33.1l4.8-4.8
	C967.4,751.5,966,742,966,732.2z"/>
<path class="st4" d="M1187.9,732.2c0,10.6-1.6,20.8-4.5,30.4l8.3-8.3c1.5-7.2,2.2-14.6,2.2-22.1c0-15.1-3.3-29.6-9.1-42.9l-4.5,4.5
	C1185.2,705.8,1187.9,718.7,1187.9,732.2z"/>
<path class="st4" d="M1077.6,839c-12.7,0-25-2.1-36.4-5.9l-4.8,4.8c12.8,4.6,26.7,7.1,41.2,7.1c9,0,17.9-1,26.5-2.9l8.6-8.6
	C1101.6,837,1089.7,839,1077.6,839z"/>
<path class="st4" d="M1180.3,693.9l4.5-4.5c-6.9-15.8-17.5-29.9-30.7-41.2l-4.2,4.2C1163.1,663.6,1173.7,677.8,1180.3,693.9z"/>
<path class="st4" d="M1011.4,647.1l16.5-16.5c-11.9,5.5-23,13-32.6,22.1C983.9,663.5,975,676,969,689.5l16.3-16.3
	C992.5,663.2,1001.4,654.4,1011.4,647.1z"/>
<path class="st4" d="M1077.6,625.5c8.4,0,16.6,1,24.6,2.8l5-5c-9.5-2.5-19.4-3.9-29.5-3.9c-17,0-34,3.9-49.6,11.1l-16.5,16.5
	C1030.2,633.6,1053.3,625.5,1077.6,625.5z"/>
<path class="st4" d="M1149.9,652.4l4.2-4.2c-13.4-11.5-29.5-20.2-47.1-24.8l-5,5C1119.9,632.4,1136.3,640.8,1149.9,652.4z"/>
<path class="st4" d="M1104.2,1467.3c-15.6,0-30.4-1.9-44.5-5.8l-4.9,4.9c15.4,4.7,31.8,7,49.4,7c5.5,0,10.9-0.2,16.1-0.6l6.7-6.7
	C1119.7,1466.8,1112.1,1467.3,1104.2,1467.3z"/>
<path class="st4" d="M1194.4,1254.8c-11.5-10.2-25-20.5-40.4-31.5l-4.3,4.3c15.6,11.1,29.1,21.3,40.5,31.4L1194.4,1254.8z"/>
<path class="st4" d="M1223.2,1298l4.4-4.4c-8-13.7-19.1-26.2-33.2-38.7l-4.3,4.3C1204.5,1271.8,1215.5,1284.3,1223.2,1298z"/>
<path class="st4" d="M1111.5,1606.8c-17.4,0-34.4-0.8-51-2.5l-5.5,5.5c18,2,36.8,3,56.5,3c4.2,0,8.4-0.1,12.6-0.2l6.2-6.2
	C1124.1,1606.7,1117.8,1606.8,1111.5,1606.8z"/>
<path class="st4" d="M1127.1,1466l-6.7,6.7c33.7-2.7,62.5-13.8,84-32.5c24.9-21.8,38.1-52.3,38.1-88.1c0-0.5,0-1,0-1.5l-6.1,6.1
	C1234.3,1416.5,1192.4,1458.2,1127.1,1466z"/>
<path class="st4" d="M1011.5,1437.8l-4.3,4.3c15.1,11.1,30.8,19.1,47.6,24.2l4.9-4.9C1042.9,1456.7,1026.9,1449,1011.5,1437.8z"/>
<path class="st4" d="M974.4,1402.9l-4.3,4.3c12,13.9,24.3,25.5,37,34.9l4.3-4.3C998.9,1428.6,986.6,1417,974.4,1402.9z"/>
<path class="st4" d="M1382.8,1497.7l-49.9,49.9C1352.1,1533.3,1368.9,1516.7,1382.8,1497.7z"/>
<path class="st4" d="M1176.9,1056.7l4.3-4.3c-9.3-15.7-13.9-32.6-13.9-52.1c0-2,0-3.9,0-5.9l-6,6
	C1161.3,1021.7,1166.7,1039.9,1176.9,1056.7z"/>
<path class="st4" d="M1010.8,1079.1l-4.7,4.7c6.7,16.9,15.6,32,26.1,45.8l4.2-4.2C1026,1111.5,1017.2,1096.3,1010.8,1079.1z"/>
<path class="st4" d="M1036.4,1125.3l-4.2,4.2c10.2,13.4,22,25.6,34.9,37l4.2-4.2C1058.6,1151.1,1046.7,1138.9,1036.4,1125.3z"/>
<path class="st4" d="M1111.6,1193.9c-13.9-9.9-27.5-20.2-40.3-31.5l-4.2,4.2c12.6,11.1,26.1,21.5,40.2,31.7L1111.6,1193.9z"/>
<path class="st4" d="M998.9,1019.1l-5.7,5.7c1.5,22,6,41.5,12.9,59l4.7-4.7C1004.1,1061.4,999.9,1041.6,998.9,1019.1z"/>
<path class="st4" d="M1130.3,1606.4l-6.2,6.2c27.9-0.7,55.3-3.9,81.5-9.6l8-8C1187.3,1601.4,1159.3,1605.3,1130.3,1606.4z"/>
<path class="st4" d="M1161.3,993v7.3v0.1l6-6c0-0.5,0-0.9,0-1.4c0-19.5-7-37.3-19.8-50.7l-4.2,4.2
	C1154.9,958.8,1161.3,975.2,1161.3,993z"/>
<path class="st4" d="M998.7,1008.8v-6.1c0-53.2,27.4-80.1,81.3-80.1c5,0,9.8,0.3,14.5,0.9l5.3-5.3c-6.2-1.1-12.8-1.6-19.8-1.6
	c-57,0-87.3,29.1-87.3,86.1c0,1.2,0,4.9,0,6.1c0,5.5,0.2,10.8,0.5,16l5.7-5.7C998.7,1015.7,998.7,1012.3,998.7,1008.8z"/>
<path class="st4" d="M1140.1,943.3c1.1,1,2.2,2.1,3.3,3.2l4.2-4.2c-11.5-12.1-27.7-20.7-47.8-24.1l-5.3,5.3
	C1112.7,925.8,1128.3,932.5,1140.1,943.3z"/>
<path class="st4" d="M1210.5,1095l4.3-4.3c-14.5-12.6-25.7-25.1-33.5-38.3l-4.3,4.3C1185.1,1070.1,1196.4,1082.6,1210.5,1095z"/>
<path class="st4" d="M944.6,1576.6l-4.6,4.6c16.7,7,34.7,13,54,17.8l5-5C979.9,1589.4,961.7,1583.6,944.6,1576.6z"/>
<path class="st4" d="M909.2,1559.5c-4.2-2.3-8.2-4.8-12.2-7.3l-4.4,4.4c14.3,9.1,30.1,17.3,47.4,24.5l4.6-4.6
	C932.2,1571.5,920.4,1565.8,909.2,1559.5z"/>
<path class="st4" d="M1223.2,1298c8.8,15.7,13.3,33,13.3,54.1c0,1.5,0,3.1-0.1,4.6l6.1-6.1c-0.2-22.3-5.3-40.6-14.8-57.1
	L1223.2,1298z"/>
<path class="st4" d="M856.4,1521l-4.3,4.3c11.7,11.2,25.2,21.8,40.4,31.4l4.4-4.4C881.9,1542.8,868.3,1532.3,856.4,1521z"/>
<path class="st4" d="M800.9,1403c0-25.3,11.8-41,21.7-49.6c12.5-10.9,29.4-17.2,46.2-17.2c9.4,0,17.8,1.1,25.3,3.2l4.8-4.8
	c-8.9-2.9-18.8-4.4-30.1-4.4c-35.2,0-74,25.5-74,72.8c0,10.6,1.4,21.2,3.9,31.7l5-5C801.9,1420.5,800.9,1411.6,800.9,1403z"/>
<path class="st4" d="M824.2,1481.3l-4.4,4.4c8.5,13.8,19.3,27.1,32.3,39.6l4.3-4.3C843.5,1508.6,832.7,1495.3,824.2,1481.3z"/>
<path class="st4" d="M937.2,1368.3l4.2-4.2c-12.4-13.8-25.6-24-42.4-29.4l-4.8,4.8C911.9,1344.3,925.1,1354.6,937.2,1368.3z"/>
<path class="st4" d="M810.3,1451.9c-2.7-7.7-4.9-15.1-6.4-22.2l-5,5c1.5,6.4,3.5,12.8,5.8,19.2c3.7,10.8,8.8,21.4,15.2,31.7l4.4-4.4
	C818.5,1471.8,813.8,1461.9,810.3,1451.9z"/>
<path class="st4" d="M999,1594l-5,5c19.1,4.8,39.5,8.5,61.1,10.8l5.5-5.5C1039.2,1602.3,1018.6,1598.8,999,1594z"/>
<path class="st4" d="M1326.9,1544.6c-31.6,23-70.3,40.1-113.4,50.5l-8,8c47.9-10.3,91.6-28.8,127.3-55.5l49.9-49.9
	c23.1-31.5,38-69.4,41.8-113.7l-6.8,6.8C1410.5,1453.6,1379.4,1506.4,1326.9,1544.6z"/>
<path class="st4" d="M1421.8,1315l-5.2,5.2c2,12.6,3.1,26,3.1,40.4c0,10.3-0.6,20.4-1.8,30.2l6.8-6.8c0.7-7.6,1-15.4,1-23.5
	C1425.7,1344.2,1424.3,1329.1,1421.8,1315z"/>
<path class="st4" d="M1371.4,1221.6l4.3-4.3c-10.7-12.8-22.8-24.6-36-35.9l-4.3,4.3C1348.7,1197.1,1360.8,1208.9,1371.4,1221.6z"/>
<path class="st4" d="M1416.6,1320.2l5.2-5.2c-3.6-20-9.6-37.9-17.6-54.2l-4.5,4.5C1407.6,1281.8,1413.3,1299.9,1416.6,1320.2z"/>
<path class="st4" d="M1399.7,1265.2l4.5-4.5c-7.7-15.8-17.4-30.1-28.5-43.4l-4.3,4.3C1382.6,1235,1392.1,1249.4,1399.7,1265.2z"/>
<path class="st4" d="M1335.4,1185.8l4.3-4.3c-12.7-10.8-26.3-21.1-40.7-31.1l-4.3,4.3C1309.1,1164.8,1322.7,1175.1,1335.4,1185.8z"
	/>
<path class="st4" d="M1259.8,1131.5L1259.8,1131.5c12,7.8,23.6,15.5,34.7,23.2l4.3-4.3c-11.5-8-23.5-16-35.7-23.9
	c-2.5-1.6-4.9-3.3-7.3-4.9l-4.3,4.3C1254.2,1127.7,1257,1129.6,1259.8,1131.5z"/>
<path class="st4" d="M963.8,1399.5c2.1,2.6,4.3,5.2,6.4,7.6l4.3-4.3c-2-2.3-4-4.7-6-7.2l-20.6-24.3c-2.1-2.6-4.2-5-6.3-7.4l-4.2,4.2
	c2,2.2,3.9,4.6,5.9,7L963.8,1399.5z"/>
<path class="st4" d="M1251.5,1125.9l4.3-4.3c-15.8-10.7-29.5-20.8-41-30.9l-4.3,4.3C1222.3,1105.2,1236,1115.4,1251.5,1125.9z"/>
<path class="st4" d="M1149.7,1227.7l4.3-4.3c-11.2-8-23.4-16.4-36.6-25.4c-1.9-1.4-3.8-2.7-5.8-4.1l-4.3,4.3
	c2.2,1.6,4.4,3.1,6.6,4.7C1126.9,1211.7,1138.8,1219.9,1149.7,1227.7z"/>
<path class="st4" d="M1424.7,1384c-3.9,44.3-18.8,82.2-41.8,113.7l19.8-19.8c16.6-29.9,26.3-63.7,28.5-100.4L1424.7,1384z"/>
<path class="st4" d="M1111.5,1612.8c-19.6,0-38.4-1-56.5-3l-5.4,5.4c20,2.4,40.7,3.6,61.9,3.6c2.2,0,4.3,0,6.5-0.1l6.1-6.1
	C1119.9,1612.8,1115.7,1612.8,1111.5,1612.8z"/>
<path class="st4" d="M1205.6,1603.1l-7.7,7.7c42-8.1,80.6-22.2,113.6-41.7l21.5-21.5C1297.2,1574.2,1253.4,1592.8,1205.6,1603.1z"/>
<path class="st4" d="M1124.1,1612.7l-6.1,6.1c27.6-0.4,54.4-3.1,79.9-8l7.7-7.7C1179.4,1608.7,1152.1,1611.9,1124.1,1612.7z"/>
<path class="st4" d="M1010.7,934c-2.9,2.8-5.5,5.9-7.9,9.3l16.1-16.1C1016,929.3,1013.3,931.5,1010.7,934z"/>
<path class="st4" d="M814.8,1344.3c-4.9,4.3-10.2,9.9-14.7,17.3l24.6-24.6C821.2,1339.2,817.9,1341.7,814.8,1344.3z"/>
<path class="st4" d="M1332.9,1547.6l-21.5,21.5c7.8-4.6,15.4-9.6,22.5-14.8c29.4-21.4,52.3-47.1,68.6-76.4l-19.8,19.8
	C1368.9,1516.7,1352.1,1533.3,1332.9,1547.6z"/>
<path class="st4" d="M994,1599l-4.9,4.9c19.3,5,39.6,8.8,60.6,11.3l5.4-5.4C1033.5,1607.5,1013.1,1603.8,994,1599z"/>
<path class="st4" d="M1339.6,1181.5l4.3-4.3c-12.9-11.1-26.7-21.4-40.7-31.2l-4.3,4.3C1313.3,1160.4,1327,1170.7,1339.6,1181.5z"/>
<path class="st4" d="M1214.8,1090.7l4.3-4.3c-9.5-8.2-17.1-16-23.2-23.6c-3.9-4.9-7.3-9.8-10.2-14.8l-4.4,4.4
	C1189.1,1065.6,1200.3,1078.1,1214.8,1090.7z"/>
<path class="st4" d="M1255.8,1121.6l4.3-4.3c-16.7-11.2-30.1-21.3-41.1-30.8l-4.3,4.3C1226.3,1100.7,1240,1110.9,1255.8,1121.6z"/>
<path class="st4" d="M1145.4,1232l4.3-4.3c-10.9-7.8-22.8-16-35.7-24.8c-2.2-1.6-4.4-3.1-6.6-4.7l-4.3,4.3c2.5,1.8,5,3.6,7.5,5.3
	C1122.8,1216.2,1134.5,1224.2,1145.4,1232z"/>
<path class="st4" d="M1263.1,1126.4c12.3,8,24.2,15.9,35.7,23.9l4.3-4.3c-12.2-8.5-24.5-16.7-36.8-24.6c-2.1-1.4-4.2-2.8-6.3-4.2
	l-4.3,4.3C1258.2,1123.2,1260.6,1124.8,1263.1,1126.4z"/>
<path class="st4" d="M1167.3,993c0,0.5,0,0.9,0,1.4l5.9-5.9c-1-20-8.7-37.3-21.4-50.5l-4.3,4.3
	C1160.4,955.8,1167.3,973.5,1167.3,993z"/>
<path class="st4" d="M1011.5,1437.8l4.3-4.3c-12.8-9.2-25.1-20.7-37.1-34.8l-4.3,4.3C986.6,1417,998.9,1428.6,1011.5,1437.8z"/>
<path class="st4" d="M1190.1,1259.1c-11.4-10.1-24.9-20.3-40.5-31.4l-4.3,4.3c15.2,10.8,28.9,21.2,40.5,31.4L1190.1,1259.1z"/>
<path class="st4" d="M1167.3,1000.3c0,19.5,4.6,36.3,13.9,52.1l4.4-4.4c-8.4-14.7-12.3-30.2-12.3-47.7V993c0-1.5,0-3-0.1-4.5
	l-5.9,5.9C1167.3,996.4,1167.3,998.3,1167.3,1000.3z"/>
<path class="st4" d="M1107.3,1198.2c-14.1-10.1-27.7-20.5-40.2-31.7l-4.2,4.2c13.2,11.7,26.9,22.2,40.2,31.7L1107.3,1198.2z"/>
<path class="st4" d="M1425.7,1360.5c0,8-0.3,15.8-1,23.5l6.5-6.5c0.3-5.6,0.5-11.2,0.5-17c0-17.8-1.6-34.6-4.8-50.6l-5.1,5.1
	C1424.3,1329.1,1425.7,1344.2,1425.7,1360.5z"/>
<path class="st4" d="M968.4,1395.7c2,2.5,4,4.9,6,7.2l4.3-4.3c-1.9-2.2-3.8-4.4-5.6-6.7l-20.7-24.3c-2.1-2.7-4.4-5.3-6.7-7.9
	l-4.3,4.3c2.1,2.4,4.2,4.8,6.3,7.4L968.4,1395.7z"/>
<path class="st4" d="M941.5,1364l4.3-4.3c-11.1-12.4-24.1-23.5-42-29.9l-4.7,4.7C915.9,1340,929.1,1350.2,941.5,1364z"/>
<path class="st4" d="M1375.7,1217.4l4.3-4.3c-10.8-12.8-23-24.7-36-35.9l-4.3,4.3C1352.8,1192.8,1364.9,1204.6,1375.7,1217.4z"/>
<path class="st4" d="M1404.1,1260.8l4.4-4.4c-7-14-15.6-27.2-25.8-39.8c-0.9-1.1-1.9-2.3-2.8-3.4l-4.3,4.3
	C1386.8,1230.7,1396.4,1245,1404.1,1260.8z"/>
<path class="st4" d="M1421.8,1315l5.1-5.1c-3.8-19-9.9-36.8-18.3-53.6l-4.4,4.4C1412.2,1277.1,1418.2,1295,1421.8,1315z"/>
<path class="st4" d="M892.6,1556.6l-4.3,4.3c4.9,3.1,9.9,6.1,15,9c10.2,5.7,20.9,11,32.1,15.7l4.6-4.6
	C922.7,1574,906.9,1565.7,892.6,1556.6z"/>
<path class="st4" d="M804.6,1453.9c-2.3-6.4-4.2-12.8-5.8-19.2l-4.9,4.9c1.4,5.3,3.1,10.7,5,16.2c4.1,11.7,9.6,23.1,16.5,34.1
	l4.3-4.3C813.5,1475.3,808.4,1464.7,804.6,1453.9z"/>
<path class="st4" d="M794.9,1403c0-47.3,38.8-72.8,74-72.8c11.3,0,21.2,1.5,30.1,4.4l4.7-4.7c-10-3.6-21.4-5.7-34.8-5.7
	c-15.6,0-31.1,4.6-44.2,12.8l-24.6,24.6c-6.4,10.3-11.2,23.9-11.2,41.4c0,11.8,1.7,23.9,5,36.7l4.9-4.9
	C796.4,1424.2,794.9,1413.6,794.9,1403z"/>
<path class="st4" d="M1062.9,1170.7l4.2-4.2c-12.9-11.4-24.7-23.6-34.9-37l-4.3,4.3C1038.3,1147.3,1050.3,1159.6,1062.9,1170.7z"/>
<path class="st4" d="M819.9,1485.6l-4.3,4.3c8.7,13.9,19.6,27.1,32.4,39.4l4.2-4.2C839.2,1512.7,828.4,1499.4,819.9,1485.6z"/>
<path class="st4" d="M1006.1,1083.8l-4.6,4.6c5.8,14,13.2,27.4,22.4,40.1c1.3,1.8,2.7,3.6,4,5.4l4.3-4.3
	C1021.6,1115.8,1012.7,1100.7,1006.1,1083.8z"/>
<path class="st4" d="M940,1581.2l-4.6,4.6c16.9,7.2,34.9,13.3,53.7,18.2l4.9-4.9C974.7,1594.2,956.7,1588.2,940,1581.2z"/>
<path class="st4" d="M852.2,1525.2l-4.2,4.2c11.9,11.4,25.4,22,40.3,31.6l4.3-4.3C877.4,1547,863.9,1536.5,852.2,1525.2z"/>
<path class="st4" d="M993.2,1024.8l-5.6,5.6c1.9,20.7,6.5,39.9,13.9,58l4.6-4.6C999.2,1066.2,994.7,1046.8,993.2,1024.8z"/>
<path class="st4" d="M1196.4,1431.1c-16.3,14.3-37.5,23.7-62.3,27.8l-7,7c65.3-7.8,107.3-49.4,109.3-109.3l-6.4,6.4
	C1227.6,1390.5,1216.1,1413.9,1196.4,1431.1z"/>
<path class="st4" d="M1104.2,1461.3c-14,0-27.1-1.6-39.6-4.8l-4.9,4.9c14.1,4,28.9,5.8,44.5,5.8c7.9,0,15.5-0.5,22.8-1.3l7-7
	C1124.7,1460.5,1114.7,1461.3,1104.2,1461.3z"/>
<path class="st4" d="M1230.5,1352.1c0,3.7-0.2,7.4-0.5,11l6.4-6.4c0.1-1.5,0.1-3.1,0.1-4.6c0-21.1-4.4-38.4-13.3-54.1l-4.4,4.4
	C1226.8,1317.2,1230.5,1333.1,1230.5,1352.1z"/>
<path class="st4" d="M1190.1,1259.1l-4.3,4.3c5.7,5,10.8,10,15.4,14.9c7.3,7.9,13.1,15.8,17.5,24l4.4-4.4
	C1215.5,1284.3,1204.5,1271.8,1190.1,1259.1z"/>
<path class="st4" d="M992.7,1008.8c0-1.2,0-4.9,0-6.1c0-57,30.3-86.1,87.3-86.1c7,0,13.6,0.6,19.8,1.6l5.1-5.1
	c-7.8-1.6-16.1-2.5-24.9-2.5c-25.3,0-45.8,5.6-61.1,16.6l-16.1,16.1c-10.7,15-16.2,34.9-16.2,59.4v6.1c0,7.4,0.3,14.6,0.9,21.6
	l5.6-5.6C992.8,1019.6,992.7,1014.3,992.7,1008.8z"/>
<path class="st4" d="M1015.8,1433.4l-4.3,4.3c15.4,11.2,31.3,18.9,48.2,23.7l4.9-4.9C1047.3,1452.1,1031.2,1444.5,1015.8,1433.4z"/>
<path class="st4" d="M1147.6,942.3l4.3-4.3c-11.8-12.2-27.8-20.9-47-24.9l-5.1,5.1C1119.9,921.6,1136.1,930.2,1147.6,942.3z"/>
<path class="st5" d="M119.3,1112.2c0,537.3,445.9,983.3,982,983.3c537.3,0,985.7-445.9,985.7-983.3S1639.9,129,1102.6,129
	C566.5,129,119.3,574.9,119.3,1112.2z M1900.7,1112.2c0,443.5-355.8,798.1-799.3,798.1c-442.3,0-794.4-354.6-794.4-798.1
	s353.3-798.1,795.6-798.1C1546.1,314.2,1900.7,668.7,1900.7,1112.2z"/>
<path class="st6" d="M991.4,1002.5c0,1.2,0,4.8,0,6c0,96.6,56,147.3,121.8,193.2c81.6,55.5,123.1,84.5,123.1,148.5
	c0,68.8-52.4,114.7-132.8,114.7c-52.4,0-95-20.5-136.5-71.2l-20.7-24.1c-20.7-25.4-42.6-41-79.2-41c-35.3,0-74.3,25.4-74.3,72.4
	c0,16.9,3.7,33.8,9.7,50.7c29.2,83.3,140.1,158.2,308.3,158.2c165.7,0,315.6-84.5,315.6-251.1c0-119.5-73.1-175.1-163.3-233
	c-64.6-42.3-96.3-74.9-96.3-125.6c0-2.4,0-4.8,0-7.2c0-42.3-32.9-76.1-87.7-76.1C1021.8,916.8,991.4,945.7,991.4,1002.5z
	 M964.6,733.2c0,59.2,51.2,106.2,112.1,106.2c59.7,0,110.9-45.9,110.9-106.2c0-59.2-52.4-106.2-110.9-106.2
	C1017,627,964.6,675.3,964.6,733.2z"/>
</svg>
