<?xml version="1.0" encoding="utf-8"?>
<!-- Generator: Adobe Illustrator 28.2.0, SVG Export Plug-In . SVG Version: 6.00 Build 0)  -->
<svg version="1.1" id="Layer_1" xmlns="http://www.w3.org/2000/svg" xmlns:xlink="http://www.w3.org/1999/xlink" x="0px" y="0px"
	 viewBox="0 0 512 114.3" style="enable-background:new 0 0 512 114.3;" xml:space="preserve">
<style type="text/css">
	.st0{fill:#FF0000;}
	.st1{fill:#FFFFFF;}
	.st2{fill:#282828;}
</style>
<g>
	<path class="st0" d="M159.9,17.8c-1.9-7-7.4-12.6-14.4-14.4C132.7,0,81.6,0,81.6,0S30.6,0,17.8,3.4c-7,1.9-12.6,7.4-14.4,14.4
		C0,30.6,0,57.2,0,57.2s0,26.6,3.4,39.3c1.9,7,7.4,12.6,14.4,14.4c12.7,3.4,63.8,3.4,63.8,3.4s51.1,0,63.8-3.4
		c7-1.9,12.6-7.4,14.4-14.4c3.4-12.7,3.4-39.3,3.4-39.3S163.3,30.6,159.9,17.8z"/>
	<path class="st1" d="M65.3,81.6l42.4-24.5L65.3,32.7V81.6z"/>
</g>
<g>
	<g id="youtube-paths">
		<path class="st2" d="M197.8,74.3L179.4,8.1h16l6.4,30c1.6,7.4,2.8,13.7,3.6,18.9h0.5c0.5-3.7,1.7-10,3.6-18.8l6.7-30.1h16
			l-18.6,66.2v31.8h-15.9L197.8,74.3L197.8,74.3z"/>
		<path class="st2" d="M237,104c-3.2-2.2-5.5-5.6-6.9-10.2c-1.4-4.6-2-10.7-2-18.3V65.1c0-7.7,0.8-13.9,2.3-18.6
			c1.6-4.7,4-8.1,7.3-10.2c3.3-2.1,7.6-3.2,13-3.2c5.3,0,9.5,1.1,12.7,3.3c3.2,2.2,5.5,5.6,7,10.2c1.5,4.6,2.2,10.8,2.2,18.5v10.4
			c0,7.6-0.7,13.8-2.2,18.4c-1.4,4.6-3.8,8-7,10.2c-3.2,2.1-7.6,3.2-13.1,3.2C244.7,107.3,240.2,106.2,237,104z M255.1,92.8
			c0.9-2.3,1.3-6.1,1.3-11.4V59c0-5.1-0.4-8.9-1.3-11.3c-0.9-2.4-2.5-3.6-4.7-3.6c-2.2,0-3.7,1.2-4.6,3.6c-0.9,2.4-1.3,6.1-1.3,11.3
			v22.3c0,5.3,0.4,9.1,1.3,11.4c0.9,2.3,2.4,3.5,4.7,3.5C252.6,96.3,254.2,95.1,255.1,92.8z"/>
		<path class="st2" d="M324.7,106.1h-12.6l-1.4-8.8h-0.3c-3.4,6.6-8.6,9.9-15.4,9.9c-4.7,0-8.3-1.6-10.5-4.7
			c-2.3-3.1-3.4-8-3.4-14.6V34.5h16.1V87c0,3.2,0.3,5.5,1,6.8c0.7,1.4,1.9,2,3.5,2c1.4,0,2.7-0.4,4-1.3c1.3-0.9,2.2-1.9,2.9-3.3
			V34.5h16.1V106.1z"/>
		<path class="st2" d="M368.5,21.1h-16v85h-15.8v-85h-16v-13h47.8V21.1z"/>
		<path class="st2" d="M407.3,106.1h-12.6l-1.4-8.8H393c-3.4,6.6-8.6,9.9-15.4,9.9c-4.7,0-8.3-1.6-10.5-4.7c-2.3-3.1-3.4-8-3.4-14.6
			V34.5h16.1V87c0,3.2,0.3,5.5,1,6.8c0.7,1.4,1.9,2,3.5,2c1.4,0,2.7-0.4,4-1.3c1.3-0.9,2.2-1.9,2.9-3.3V34.5h16.1V106.1z"/>
		<path class="st2" d="M460.7,45.9c-1-4.5-2.6-7.8-4.7-9.8c-2.2-2-5.2-3-9-3c-3,0-5.7,0.8-8.3,2.5c-2.6,1.7-4.6,3.9-6,6.6h-0.1V4.5
			h-15.5v101.6h13.3l1.6-6.8h0.3c1.2,2.4,3.1,4.3,5.6,5.7c2.5,1.4,5.3,2.1,8.3,2.1c5.4,0,9.5-2.5,12-7.5c2.6-5,3.9-12.9,3.9-23.5
			V64.7C462.1,56.7,461.7,50.5,460.7,45.9z M445.9,75.1c0,5.2-0.2,9.3-0.6,12.3c-0.4,3-1.1,5.1-2.2,6.3c-1,1.2-2.4,1.9-4.1,1.9
			c-1.3,0-2.6-0.3-3.7-0.9c-1.1-0.6-2-1.6-2.7-2.8V51.2c0.5-1.9,1.5-3.5,2.8-4.8c1.3-1.2,2.8-1.9,4.3-1.9c1.6,0,2.9,0.6,3.8,1.9
			c0.9,1.3,1.5,3.4,1.9,6.5c0.3,3,0.5,7.4,0.5,13L445.9,75.1L445.9,75.1z"/>
		<path class="st2" d="M485,79.3c0,4.6,0.1,8,0.4,10.3c0.3,2.3,0.8,4,1.7,5c0.9,1,2.2,1.6,4,1.6c2.4,0,4.1-0.9,5-2.8
			c0.9-1.9,1.4-5,1.5-9.3l13.9,0.8c0.1,0.6,0.1,1.5,0.1,2.6c0,6.6-1.8,11.6-5.4,14.8c-3.6,3.3-8.7,4.9-15.3,4.9
			c-7.9,0-13.5-2.5-16.7-7.5c-3.2-5-4.8-12.7-4.8-23.1V64.1c0-10.7,1.7-18.6,5-23.5c3.3-4.9,9-7.4,17-7.4c5.5,0,9.8,1,12.7,3
			c3,2,5,5.2,6.2,9.5c1.2,4.3,1.8,10.2,1.8,17.8v12.3h-27V79.3z M487.1,45.5c-0.8,1-1.4,2.7-1.6,5c-0.3,2.3-0.4,5.8-0.4,10.5v5.1
			h11.8V61c0-4.6-0.2-8.1-0.5-10.5c-0.3-2.4-0.9-4-1.7-5c-0.8-1-2.1-1.5-3.8-1.5C489.1,44,487.9,44.5,487.1,45.5z"/>
	</g>
</g>
</svg>
