<?xml version='1.0' encoding='iso-8859-1'?>
<!-- Uploaded to: SVG Repo, www.svgrepo.com, Generator: SVG Repo Mixer Tools -->
<svg fill="#000000" height="800px" width="800px" version="1.1" xmlns="http://www.w3.org/2000/svg" viewBox="0 0 490.201 490.201" xmlns:xlink="http://www.w3.org/1999/xlink" enable-background="new 0 0 490.201 490.201">
  <g>
    <path d="m467.999,22.057c-46.8-41.9-98.1-14.6-112.5,4.2l-34.4,40.6-280.3-31.3c-2.5-0.5-6.9,0.2-8.3,2.1l-29.2,29.2c-4.6,4.2-4.7,13.3 2.1,16.7l204.2,106.2-64.6,76-110.5-15.6c-3.1,0-6.2,1-8.3,3.1l-18.8,18.7c-5.3,5.6-3.8,13.4 2.1,16.7l88.6,43.7c-2.1,15.6 3.1,32.3 15.6,44.8 11.5,12.5 28.1,17.7 44.8,15.6l43.8,88.5c3.7,8.8 12.5,6.3 16.7,2.1l18.8-18.7c2.1-2.1 3.1-5.2 3.1-8.3l-15.6-110.4 76-64.5 105.3,203.1c4,6.8 11.1,7.4 16.7,2.1l29.2-29.2c2.1-2.1 3.1-5.2 3.1-8.3l-31.3-280.2 39.5-35.4c18.7-12.9 46.4-68.1 4.2-111.5zm-17.8,93.7l-43.8,39.6c-2.1,3.2-3.1,6.3-3.1,9.4l31.3,280.2-15.6,15.6-105.2-201c-4-6.4-11.4-6.2-16.8-2.2l-90.7,76c-2.1,2.1-3.1,6.3-3.1,9.4l15.6,110.4-5.2,5.2-40.6-82.3c-2.1-4.2-7.3-6.2-12.5-5.2-11.4,3.2-25,0-33.3-8.3-9.3-9.3-12.5-21.8-8.3-33.3 2.1-5.2-1-10.4-5.2-12.5l-82.3-40.6 5.2-5.2 110.4,15.6c3.1,1.1 7.3,0 9.4-3.1l76.1-90.6c2.1-2.1 3.9-11.1-3.1-15.6l-201.1-105.2 14.6-19.8 280.1,31.2c4.2,1.1 7.3-1 9.4-3.1l39.6-43.7c8.4-11.4 46.8-34.2 81.3-2.1 35,32.5 6.8,76-3.1,81.2z"/>
  </g>
</svg>