<?xml version="1.0" encoding="UTF-8"?>
<svg id="Layer_1_Image" data-name="Layer 1 Image" xmlns="http://www.w3.org/2000/svg" viewBox="0 0 154 184">
  <defs>
    <style>
      .cls-1 {
        fill: none;
        stroke: #000;
        stroke-miterlimit: 10;
        stroke-width: 2px;
      }
    </style>
  </defs>
  <polygon class="cls-1" points="128.78 19.1 102.42 3.88 67.57 3.88 41.8 22.33 22.18 53.95 23.64 85 33.31 107.55 53.22 122.77 43.85 143.57 28.33 138.59 12.51 139.76 5 145.03 1.97 154.69 6.36 165.82 17.78 171.68 43.85 178.71 68.74 180.47 81.04 143.57 87.78 158.79 93.63 179 96.27 182 116.77 182 134.05 177.83 147 166.12 148.69 159.09 148.69 145.62 129.95 142.1 119.09 142.33 111.19 129.81 105.05 120.43 116.18 116.33 128.19 98.47 142.25 77.38 147 61.27 147 42.83 128.78 19.1"/>
</svg>