<?xml version="1.0" encoding="UTF-8"?>
<svg id="Layer_1_Image" data-name="Layer 1 Image" xmlns="http://www.w3.org/2000/svg" viewBox="0 0 269 240">
  <defs>
    <style>
      .cls-1 {
        fill: none;
        stroke: #000;
        stroke-miterlimit: 10;
      }
    </style>
  </defs>
  <polygon class="cls-1" points="193.3 0 182.88 11.2 182.88 29.95 145.79 35.79 142.87 50.37 118.28 42.04 88.69 42.87 74.94 65.38 73.27 87.47 61.19 107.89 49.52 107.89 34.51 127.06 20.34 120 0 134.56 0 167.9 37.85 182.07 49.93 182.07 47.02 230 52.02 236.67 72.02 240 96.65 240 103.7 232.08 102.03 220 87.44 211.24 90.36 207.08 117.03 206.24 124.53 202.08 132.45 160.4 179.96 190.41 186.21 190.41 199.97 175.82 211.64 184.57 223.31 185.82 251.65 159.98 251.65 149.56 241.64 135.39 240.81 126.64 226.22 111.64 210.39 112.05 213.3 104.55 218.31 99.14 213.72 81.63 224.97 85.38 230.39 82.46 230.81 57.04 247.9 58.71 267.07 48.71 269 31.62 264.57 10.78 239.56 0 193.3 0"/>
</svg>