<?xml version="1.0" encoding="UTF-8"?>
<svg id="Layer_1_Image" data-name="Layer 1 Image" xmlns="http://www.w3.org/2000/svg" viewBox="0 0 220 221">
  <defs>
    <style>
      .cls-1 {
        fill: none;
        stroke: #000;
        stroke-miterlimit: 10;
      }
    </style>
  </defs>
  <polygon class="cls-1" points="105.48 7.65 88.36 6.31 68.57 13.27 53.6 27.71 49.59 46.43 54.4 64.61 31.4 77.18 20.17 71.56 8.14 72.1 1.19 79.05 1.19 92.15 11.88 106.06 25.79 117.29 36.48 119.43 39.69 124.78 35.41 128.52 34.88 136.54 45.84 148.31 63.49 156.33 80.61 157.67 91.3 154.99 93.98 181.2 81.41 186.55 70.45 195.11 67.77 203.66 69.38 209.81 76.6 216 99.86 218.91 122.86 214.89 126.07 208.21 134.62 209.81 159.49 211.42 178.21 205.8 183.56 197.78 184.63 185.21 177.14 174.52 165.38 171.04 158.96 171.04 157.35 143.23 181.96 137.88 187.57 146.17 199.34 150.18 208.7 148.58 215.11 140.55 219 129.86 219 110.5 211.37 98.57 198.8 90.28 189.18 89.75 179.55 92.96 175.27 102.31 175 105.52 147.73 112.61 130.08 114.88 130.88 106.33 142.11 106.33 157.62 102.31 169.39 90.55 173.93 77.98 173.13 63.54 162.97 50.97 153.08 43.75 132.48 41.35 126.6 43.75 127.94 25.84 118.85 14.6 105.48 7.65"/>
</svg>