<?xml version="1.0" encoding="UTF-8"?>
<svg id="Layer_1_Image" data-name="Layer 1 Image" xmlns="http://www.w3.org/2000/svg" viewBox="0 0 113 193">
  <defs>
    <style>
      .cls-1 {
        fill: none;
        stroke: #000;
        stroke-miterlimit: 10;
      }
    </style>
  </defs>
  <polygon class="cls-1" points="12.54 2.99 2.29 9.37 2.29 100.49 12.54 103.68 18.69 103.68 20.96 108.23 2.29 110.28 1 187.96 15.5 190 42.83 190.92 52.86 190 61.97 179.99 61.97 167 49.67 156.75 33.49 153.11 33.04 143.08 56.5 144.45 64.02 139.89 60.14 106.18 75.41 108.23 80.87 105.04 80.87 82.04 106.16 82.49 109 77.94 110.03 52.42 104.79 48.55 78.6 46.96 66.29 26.91 36.23 9.6 12.54 2.99"/>
</svg>