<?xml version="1.0" encoding="UTF-8"?>
<svg id="Layer_1_Image" data-name="Layer 1 Image" xmlns="http://www.w3.org/2000/svg" viewBox="0 0 182 152">
  <defs>
    <style>
      .cls-1 {
        fill: none;
        stroke: #000;
        stroke-miterlimit: 10;
      }
    </style>
  </defs>
  <polygon class="cls-1" points="93 4.82 70.45 10.82 51.18 22.82 41.36 44.09 39 86.27 35.18 89.18 19.18 88.27 8.09 95.36 4.64 103.36 6.27 113.73 18.45 124.09 33.73 128.09 48.82 125.18 54.27 122.09 54.27 131.73 59.36 140.82 65.91 148 73.55 149.91 85.36 148 91 140.82 95.36 103.55 99.18 111.73 107 120.82 133.55 125.18 158.45 125.36 174.45 117.73 179 109.91 179 97 168.09 84.09 156.82 82.64 141.55 86.09 132.09 87.36 131.55 71.18 149.91 71 156.64 66.64 159.36 58.45 157.91 37.91 141.91 17.55 125.91 8 108.27 4.82 93 4.82"/>
</svg>