<?xml version="1.0" encoding="UTF-8"?>
<svg id="Layer_1_Image" data-name="Layer 1 Image" xmlns="http://www.w3.org/2000/svg" viewBox="0 0 233 252">
  <defs>
    <style>
      .cls-1 {
        fill: none;
        stroke: #000;
        stroke-miterlimit: 10;
      }
    </style>
  </defs>
  <polygon class="cls-1" points="57.97 0 53.56 9.68 53.56 33.21 50.03 39.97 51.79 64.09 29.44 62.62 25.62 69.38 25.62 82.03 16.79 87.62 3.56 85.56 0 87.62 0 96.74 14.44 119.09 24.44 121.44 45.62 152.62 65.91 156.44 87.38 154.38 87.38 166.44 72.97 175.85 72.09 186.44 65.03 193.5 52.68 197.91 46.79 218.21 50.03 228.79 60.32 230.26 64.74 243.5 79.74 249.97 95.62 249.97 103.26 242.62 120.91 241.15 126.5 249.97 141.21 252 155.91 249.68 162.09 246.15 182.97 245.56 209.44 231.74 212.09 222.32 205.91 206.15 178.56 204.09 176.21 184.38 169.74 181.15 153.56 180.56 147.09 169.68 132.38 167.62 132.38 157.03 152.68 155.85 212.09 142.03 214.74 134.09 214.74 109.38 226.5 106.15 233 96.44 233 67.32 224.44 64.97 212.97 71.74 207.38 65.85 209.44 60.85 206.79 50.56 194.44 49.38 179.15 60.26 173.26 60.56 167.38 37.03 155.32 35.85 150.91 28.5 154.74 21.74 151.5 7.62 139.74 3.21 124.74 4.68 119.15 12.91 86.5 11.74 78.85 0 57.97 0"/>
</svg>