<?xml version="1.0" encoding="UTF-8"?>
<svg id="Layer_1_Image" data-name="Layer 1 Image" xmlns="http://www.w3.org/2000/svg" viewBox="0 0 316 204">
  <defs>
    <style>
      .cls-1 {
        fill: none;
        stroke: #000;
        stroke-miterlimit: 10;
      }
    </style>
  </defs>
  <polygon class="cls-1" points="134.68 0 73.62 0 73.62 10.77 58.48 12.22 58.48 37.7 62.33 43.23 82.04 52.6 90.45 75.44 70.02 87.46 40.21 75.92 31.08 80.73 32.52 134.57 18.58 136.01 1.27 141.78 0 183.61 4.88 191.3 27.95 195.39 67.34 192.75 69.06 199 85.4 204 128.67 204 134.68 196.83 134.68 153.08 119.54 145.63 109.2 144.67 113.77 136.74 149.59 139.62 195.02 140.1 206.32 131.93 228.67 132.17 235.4 139.14 255.12 141.06 268.34 156.69 278.91 164.14 292.38 164.14 295.26 151.88 307.04 148.27 308.96 137.94 308.96 133.13 316 128.08 316 111.98 299.35 98.03 275.31 98.75 274.35 80.49 265.21 77.36 213.29 75.2 201.03 88.66 173.87 85.29 183.24 73.27 198.87 73.51 201.75 71.11 201.03 30.25 144.06 25.2 143.1 34.81 145.74 61.5 143.1 69.67 130.36 41.06 136.85 36.74 134.68 0"/>
</svg>