<?xml version="1.0" encoding="UTF-8"?>
<svg id="Layer_1_Image" data-name="Layer 1 Image" xmlns="http://www.w3.org/2000/svg" viewBox="0 0 168 193">
  <defs>
    <style>
      .cls-1 {
        fill: none;
        stroke: #000;
        stroke-miterlimit: 10;
      }
    </style>
  </defs>
  <polygon class="cls-1" points="86.28 0 44.36 0 23.18 18.03 15.66 42.63 20.22 65.18 29.56 85 30.92 91.6 30.92 119.62 28.19 122.81 20.67 116.2 9.74 115.75 0 120.76 0 141.94 4.73 151.97 17.26 164.72 30.01 164.72 58.03 146.5 70.79 158.35 62.36 170.19 61.22 180.67 63.73 189.32 68.51 193 88.1 193 102.45 179.76 114.07 164.95 119.54 164.72 123.86 169.51 127.74 172.01 135.03 171.78 141.4 166.32 146.64 172.01 164.18 171.56 168 164.27 168 131.69 158.49 118.25 145.96 115.06 145.73 86.36 135.94 84.31 102 81.81 106.1 63.36 109.51 59.71 109.74 25.09 86.28 0"/>
</svg>